<svg t="1754712435684" class="icon" viewBox="0 0 1024 1024" version="1.1" xmlns="http://www.w3.org/2000/svg"
    p-id="15236" width="200" height="200">
    <path
        d="M750.944 0 273.056 0C122.88 0 0 122.88 0 273.056l0 477.856C0 901.12 122.88 1024 273.056 1024l477.856 0C901.12 1024 1024 901.12 1024 750.944L1024 273.056C1024 122.88 901.12 0 750.944 0zM684.352 186.432c47.328 33.056 86.368 66.112 117.92 99.136l-27.808 27.808c-28.544-31.52-67.584-65.344-117.152-101.408L684.352 186.432zM322.368 853.344 281.792 853.344 281.792 409.472c-28.544 41.312-60.832 80.352-96.128 116.416L172.896 486.08c84.128-93.12 144.96-197.504 181.76-314.656l36.832 16.512c-18.784 55.584-42.08 108.16-69.088 156.96L322.4 853.344zM828.576 819.552c-10.528 13.536-24.768 21.024-42.816 21.792l-91.616 0c-36.064 0-53.344-18.784-53.344-56.32L640.8 395.232l-59.328 0c-16.512 202.752-79.616 355.232-190.016 455.872l-30.816-26.272c105.152-94.624 165.984-237.344 180.992-429.6l-156.96 0L384.672 356.16l159.232 0c0.736-17.28 1.504-34.528 1.504-51.808L545.408 170.656l39.808 0 0 133.696-1.504 51.808 256.864 0 0 39.072-161.472 0 0 382.272c0 16.544 8.256 25.536 26.304 25.536l70.592 0c8.992 0 17.28-4.512 23.264-12 7.52-13.536 12.768-56.32 15.04-128.448l36.8 12.032C846.592 752.704 839.072 801.504 828.576 819.552z"
        fill="#EA572A" p-id="15237"></path>
</svg>