<svg t="1754712388250" class="icon" viewBox="0 0 1024 1024" version="1.1" xmlns="http://www.w3.org/2000/svg"
    p-id="14186" width="200" height="200">
    <path
        d="M489.813333 128.682667c-10.069333 3.242667-20.650667 9.557333-25.941333 15.189333-6.656 7.168-15.018667 19.626667-15.018667 22.357333 0 1.024-0.853333 2.901333-1.706666 3.754667-2.218667 2.218667-6.485333 18.773333-7.850667 30.208-1.536 13.653333 5.12 39.082667 13.824 51.370667 6.314667 9.386667 8.533333 11.605333 18.773333 19.456 5.632 4.266667 10.581333 8.021333 10.922667 8.362666 1.706667 1.194667-6.826667 33.450667-11.093333 41.984-1.365333 2.730667-2.389333 5.973333-2.389334 7.509334 0 1.365333-1.024 4.608-2.389333 6.997333-1.365333 2.56-5.290667 10.410667-8.704 17.408-3.413333 6.997333-7.68 15.018667-9.386667 17.92-1.877333 2.730667-3.925333 6.314667-4.608 7.68-5.290667 10.24-20.309333 29.696-31.914666 41.472-31.061333 31.573333-62.805333 44.373333-99.157334 40.448-18.944-2.218667-28.672-4.096-37.888-7.509333-9.045333-3.413333-27.136-12.117333-33.792-16.384-2.730667-1.877333-6.656-4.096-8.533333-5.12-5.290667-2.56-9.386667-5.290667-19.968-13.312-5.290667-3.925333-10.24-7.168-11.093333-7.168-0.682667-0.170667-3.242667-1.706667-5.461334-3.584l-4.096-3.413334 2.730667-11.605333c3.584-14.506667 3.584-22.186667 0.341333-34.816-1.365333-5.461333-2.56-11.264-2.56-12.970667s-1.194667-4.096-2.56-5.290666c-1.365333-1.194667-2.56-3.242667-2.56-4.608 0-3.584-14.506667-21.845333-20.992-26.453334-13.653333-9.728-16.554667-10.581333-35.328-10.752-17.066667 0-18.432 0.341333-28.16 5.632-18.432 10.069333-25.088 18.261333-35.498666 43.008-3.584 8.362667-4.949333 27.648-3.242667 41.984 1.536 11.093333 8.021333 28.16 13.312 34.645334 9.216 11.605333 11.946667 14.336 18.261333 18.602666 8.021333 5.290667 20.138667 10.069333 27.477334 10.922667 2.730667 0.341333 5.461333 1.706667 6.144 3.072 2.56 4.949333 6.485333 16.384 11.946666 34.133333 3.072 9.898667 6.485333 20.650667 7.68 23.893334 5.290667 14.677333 6.656 19.285333 12.8 40.106666 0.682667 2.730667 2.389333 7.850667 3.584 11.093334 1.024 3.242667 2.901333 8.704 4.096 11.946666 1.194667 3.242667 3.413333 10.581333 5.12 16.213334 1.536 5.632 3.925333 12.970667 5.12 16.213333 5.461333 15.189333 6.656 19.285333 12.8 40.106667 0.682667 2.730667 2.389333 7.850667 3.584 11.093333 1.024 3.242667 2.901333 8.704 4.096 11.946667 1.194667 3.242667 3.413333 10.581333 5.12 16.213333 1.536 5.632 3.925333 12.970667 5.12 16.213333 4.778667 13.482667 6.314667 18.090667 7.68 23.04 6.144 20.821333 7.509333 24.917333 12.8 40.106667 1.194667 3.242667 3.242667 9.386667 4.437334 13.482667 1.194667 4.096 3.242667 8.533333 4.608 9.728 1.877333 2.048 45.568 2.389333 267.946666 2.389333 290.816 0 272.042667 0.682667 273.92-9.728 0.341333-2.730667 1.706667-7.509333 2.901334-10.752 1.194667-3.242667 3.072-8.704 4.266666-11.946667 1.194667-3.242667 4.608-13.994667 7.68-23.893333 3.072-9.898667 6.485333-20.650667 7.68-23.893333 1.194667-3.242667 3.072-8.704 4.096-11.946667 1.194667-3.242667 2.730667-8.362667 3.584-11.093333 1.877333-6.656 4.949333-15.530667 7.850667-22.698667 1.365333-3.072 2.389333-6.656 2.389333-8.021333 0-1.365333 1.024-4.949333 2.389334-8.021334 1.365333-3.072 4.949333-13.653333 7.850666-23.552 2.901333-9.898667 6.485333-20.48 7.850667-23.552 1.365333-3.072 2.389333-6.656 2.389333-8.021333 0-1.365333 1.024-4.949333 2.389334-8.021333 2.901333-7.168 5.973333-16.042667 7.850666-22.698667 0.853333-2.901333 2.389333-7.850667 3.584-11.093333 1.024-3.242667 2.901333-8.704 4.096-11.946667 1.194667-3.242667 3.413333-10.581333 5.12-16.213333 1.536-5.632 3.925333-12.970667 5.12-16.213334 4.949333-13.994667 6.314667-18.261333 7.68-23.04 0.853333-2.901333 2.389333-7.850667 3.584-11.093333 1.024-3.242667 2.901333-8.704 4.096-11.946667 1.194667-3.242667 3.072-8.704 4.096-11.946666 1.194667-3.242667 2.901333-8.533333 3.584-11.776 1.536-6.144 4.096-8.704 9.045334-8.704 5.802667 0 24.234667-10.410667 29.866666-16.725334 17.066667-19.114667 22.698667-33.792 22.869334-59.904 0-19.114667-1.706667-26.624-9.898667-42.837333-4.608-9.045333-22.698667-26.282667-32.256-30.72-12.288-5.461333-37.546667-5.802667-48.64-0.512-18.602667 8.874667-31.232 25.088-39.765333 50.858667-5.461333 16.042667-3.072 44.032 4.949333 59.221333 4.608 8.704 5.290667 8.021333-29.184 31.573333-16.554667 11.434667-31.914667 19.626667-47.445333 25.429334-16.554667 6.144-45.738667 8.874667-66.389334 5.973333-13.482667-1.877333-16.896-2.901333-34.133333-9.898667-16.042667-6.485333-40.789333-26.282667-57.514667-45.909333-21.162667-24.746667-48.981333-77.312-54.784-103.082667-0.682667-3.242667-2.218667-8.192-3.242666-10.922666-2.218667-5.461333-1.024-11.264 2.218666-11.264 5.802667 0 22.528-21.333333 27.989334-35.84 6.656-17.237333 6.656-46.933333 0.170666-63.488-3.925333-10.069333-14.506667-24.917333-23.552-33.28-12.8-11.605333-38.570667-17.237333-54.784-11.776zM672.426667 529.066667c16.384 1.706667 27.477333 4.608 31.061333 8.192 1.194667 1.194667 2.730667 2.048 3.754667 2.048 2.389333 0 11.093333 10.24 15.018666 17.749333 5.12 9.898667 4.778667 33.450667-0.512 43.690667-9.898667 18.773333-23.04 24.576-60.416 26.453333-12.970667 0.512-24.405333 1.536-25.088 1.877333-2.048 1.194667-1.706667 53.248 0.341334 64 2.218667 11.434667 6.314667 15.018667 17.408 15.189334 8.021333 0 11.776 2.218667 8.533333 5.461333-1.536 1.536-78.506667 2.389333-80.042667 0.682667-0.512-0.512-0.512-2.048 0-3.584 0.853333-1.706667 3.413333-2.56 8.704-2.56 6.144 0 8.533333-0.853333 12.117334-4.608l4.266666-4.778667v-153.941333l-3.925333-3.584c-2.218667-2.048-6.485333-4.096-9.728-4.778667-12.117333-1.877333-13.824-2.56-13.141333-4.608 0.512-1.877333 9.045333-2.389333 65.194666-4.266667 5.632-0.170667 17.578667 0.512 26.453334 1.365334z m-326.314667 2.901333c-0.341333 2.048-2.389333 3.242667-6.485333 3.584-14.336 1.194667-20.138667 6.997333-16.213334 16.554667 1.194667 2.730667 3.584 8.533333 5.12 12.8 1.706667 4.266667 4.437333 10.752 6.144 14.506666 1.536 3.754667 4.949333 11.434667 7.509334 17.066667 2.389333 5.632 5.461333 12.458667 6.656 15.36 1.194667 2.730667 3.584 8.192 5.12 11.946667 1.706667 3.754667 4.096 9.386667 5.461333 12.288 1.365333 3.072 3.754667 8.533333 5.290667 11.946666 1.536 3.584 3.925333 9.045333 5.12 11.946667 1.194667 3.072 3.413333 8.021333 4.778666 11.093333 1.194667 3.072 2.730667 6.997333 3.242667 8.533334 1.365333 4.608 5.973333 3.584 8.192-1.706667 1.024-2.56 2.901333-7.168 4.266667-10.069333 1.194667-3.072 3.413333-8.362667 4.778666-11.605334 1.365333-3.242667 3.584-8.533333 4.949334-11.605333 1.365333-2.901333 5.973333-14.336 10.410666-25.088 4.437333-10.752 9.045333-22.016 10.24-24.746667 1.194667-2.901333 3.413333-7.850667 4.778667-11.093333 9.045333-20.992 11.093333-30.208 8.021333-37.376-1.706667-4.437333-6.997333-7.68-17.578666-11.093333-1.706667-0.512-2.901333-2.048-2.56-3.242667 0.682667-1.536 8.192-2.218667 28.330666-2.56 23.722667-0.341333 27.648 0 27.648 2.218667 0 1.365333-2.901333 3.925333-6.314666 5.802666-11.776 5.973333-16.725333 13.824-32.085334 51.370667-4.437333 10.752-9.216 22.357333-10.752 25.6-1.365333 3.242667-3.754667 8.704-5.12 11.946667-1.536 3.242667-3.754667 8.704-5.12 11.946666-1.536 3.242667-3.754667 8.704-5.12 11.946667-1.365333 3.242667-3.584 8.192-4.778666 10.752-1.365333 2.730667-2.389333 5.632-2.389334 6.485333s-2.218667 6.314667-4.778666 12.117334c-2.730667 5.973333-6.314667 14.165333-8.021334 18.432-8.533333 21.333333-11.093333 24.234667-16.896 19.797333-1.365333-1.024-7.68-13.824-13.824-28.330667-6.144-14.506667-12.8-29.866667-14.677333-34.133333-1.877333-4.266667-4.437333-10.069333-5.632-12.8-1.194667-2.901333-3.584-8.192-5.12-11.946667-1.706667-3.754667-4.096-9.386667-5.461333-12.458666-1.365333-2.901333-3.413333-8.021333-4.778667-11.093334-1.365333-2.901333-3.754667-8.533333-5.461333-12.288-1.536-3.754667-3.925333-9.216-5.12-11.946666-14.165333-34.816-19.285333-42.325333-30.208-45.568-8.362667-2.218667-11.776-4.608-10.410667-6.656 0.512-0.853333 18.602667-1.536 40.106667-1.536 36.522667 0 39.253333 0.170667 38.741333 2.901333z m216.405333-1.024c1.706667 2.901333-2.730667 4.949333-10.581333 4.949333-4.949333 0-8.192 1.194667-11.264 4.096-4.096 3.584-4.437333 5.461333-5.632 24.064-0.682667 10.922667-1.024 46.08-0.512 77.994667l0.682667 57.856 4.949333 4.266667c3.413333 2.901333 6.826667 4.096 12.288 4.096 5.12 0 7.68 0.853333 8.533333 2.56 0.512 1.536 0.512 3.072 0 3.584-1.536 1.706667-78.506667 0.853333-80.042666-0.682667-3.242667-3.242667 0.512-5.461333 8.704-5.461333 6.485333 0 8.874667-0.853333 12.288-4.437334l4.096-4.437333 0.512-71.850667c0.341333-39.594667 0-75.264-0.512-79.189333-1.194667-8.704-4.608-11.093333-17.066667-12.458667-6.314667-0.682667-8.704-1.706667-9.045333-3.925333-0.512-2.730667 2.218667-2.901333 40.448-2.901333 28.16 0 41.301333 0.512 42.154666 1.877333z"
        fill="#d81e06" p-id="14187"></path>
    <path
        d="M636.928 535.552c-1.536 1.194667-2.048 10.922667-1.706667 43.178667l0.512 41.642666 10.069334 0.512c11.093333 0.512 24.064-1.706667 32.768-5.802666 14.677333-6.997333 22.016-26.794667 17.749333-47.957334-3.584-18.261333-8.533333-24.576-23.381333-29.696-9.898667-3.413333-31.744-4.437333-36.010667-1.877333zM665.770667 209.578667c-16.042667 7.850667-34.304 35.157333-30.378667 45.226666 2.048 5.461333 6.997333 3.242667 10.581333-4.949333 3.072-6.997333 13.482667-17.749333 17.408-17.749333 4.096 0 13.141333 11.605333 19.285334 25.088 10.922667 23.381333 11.434667 24.746667 14.506666 32.938666 1.536 4.266667 3.925333 10.24 5.290667 13.312 1.365333 3.072 2.389333 6.314667 2.389333 7.338667 0 4.608-24.064 40.448-33.962666 50.858667-16.213333 16.554667-31.914667 23.381333-37.717334 16.384-1.194667-1.365333-3.584-2.56-5.290666-2.56-3.242667 0-26.112 22.016-24.576 23.722666 2.048 1.877333 14.165333 5.802667 20.992 6.485334 11.776 1.365333 27.306667-4.949333 41.813333-17.066667 9.557333-7.850667 34.133333-39.594667 38.570667-49.834667 3.242667-7.338667 10.410667-9.728 10.410666-3.413333 0 1.365333 1.194667 5.290667 2.730667 8.874667 1.536 3.584 3.925333 8.704 5.12 11.605333 3.754667 8.874667 9.216 20.309333 11.434667 23.893333 8.533333 14.165333 22.357333 26.453333 29.525333 26.453334 8.362667 0 25.941333-10.069333 34.816-20.138667 7.68-8.704 8.533333-10.410667 8.533333-17.749333 0-10.410667-3.413333-10.922667-9.216-1.536-5.461333 8.533333-12.288 13.824-18.090666 13.824-4.949333 0-15.018667-8.533333-19.114667-16.042667-3.242667-6.144-9.728-19.626667-12.8-26.624-1.536-3.242667-3.413333-7.338667-4.096-8.874667-1.536-2.901333-3.242667-7.68-9.386667-24.746666-2.218667-6.656-2.218667-7.509333 1.024-12.8 1.877333-3.072 3.925333-6.826667 4.608-8.192 2.048-4.608 16.213333-22.869333 24.234667-31.232 9.386667-9.728 18.602667-14.848 26.965333-14.848 4.437333 0 7.68-1.365333 11.093334-4.608 4.096-3.925333 4.778667-5.802667 4.778666-14.506667 0-12.117333-1.877333-13.482667-14.336-9.045333-14.506667 5.12-35.328 24.064-50.005333 45.909333-2.56 3.754667-5.12 7.338667-5.632 7.850667-1.536 1.536-5.12 7.509333-6.826667 11.434666-2.048 5.12-5.973333 3.413333-8.533333-3.413333-8.021333-21.504-10.752-27.477333-17.749333-39.253333-6.314667-10.752-13.994667-18.944-20.992-22.357334-6.826667-3.413333-9.898667-3.242667-17.408 0.341334zM241.152 851.456c-12.458667 9.045333-14.165333 27.989333-3.754667 42.496 6.656 9.386667-6.485333 8.874667 272.213334 8.874667h257.024l6.485333-3.584c17.578667-9.898667 18.602667-36.522667 1.877333-48.981334l-5.12-3.754666H247.978667l-6.826667 4.949333z"
        fill="#d81e06" p-id="14188"></path>
</svg>