<svg t="1754716137738" class="icon" viewBox="0 0 1024 1024" version="1.1" xmlns="http://www.w3.org/2000/svg" p-id="7584"
    width="200" height="200">
    <path
        d="M491.534629 357.098057c7.870171-3.627886 18.695314-4.388571 25.014857 2.530743 1.521371 1.784686 2.413714 3.964343 3.349943 6.100114-0.043886 1.930971-0.073143 3.876571-0.1024 5.822172-0.789943 1.916343-1.550629 3.832686-2.311315 5.778285-7.797029 14.321371-22.571886 23.127771-37.507657 28.452572-3.3792 1.301943-6.977829 1.784686-10.561828 2.018743-0.877714-6.436571-6.144-10.620343-9.508572-15.754972-3.057371-3.920457-5.4272-8.338286-6.890057-13.092571 0.014629-1.184914 0.029257-3.554743 0.043886-4.739657 1.492114-4.754286 3.1744-9.9328 7.753143-12.624457 6.670629-5.163886 15.798857-2.311314 22.688914 0.936228l0.702171 2.106514c0.175543-0.877714 0.555886-2.6624 0.731429-3.554742 2.194286-1.3312 4.388571-2.6624 6.597486-3.978972z"
        fill="#1296db" p-id="7585"></path>
    <path
        d="M402.344229 388.110629c0.980114-2.516114 3.437714-4.3008 6.202514-4.154515 8.762514 0.014629 17.539657-0.1024 26.3168 0.1024 1.667657 2.340571 2.442971 5.090743 1.901714 7.972572-2.677029 20.494629-5.632 40.974629-7.928686 61.527771-0.848457 3.876571-1.184914 7.826286-1.492114 11.776-2.545371 12.946286-3.320686 26.141257-5.412571 39.160686-0.043886 1.930971-1.462857 3.2768-2.896457 4.359314l-0.087772 0.994743c-10.122971 0.219429-20.260571 0.219429-30.368914-0.073143-2.121143-3.320686-1.492114-7.255771-1.184914-10.9568 1.4336-7.255771 2.311314-14.6432 2.940342-22.016 1.097143-3.7888 1.097143-7.753143 1.492115-11.629714 1.477486-7.255771 2.223543-14.672457 2.881828-22.045257 0.965486-3.803429 1.155657-7.738514 1.521372-11.629715 0.980114-3.306057 1.024-6.787657 1.360457-10.181485 1.141029-4.037486 1.214171-8.265143 1.316571-12.419657l0.936229 0.058514c0.1024-4.169143 0.160914-8.411429 1.2288-12.463543 0.292571-2.720914 0.512-5.441829 0.672914-8.148114l0.599772-0.234057zM909.092571 384.029257c9.815771-0.1024 19.616914-0.146286 29.432686 0l-0.2048 1.550629 1.784686-0.029257c0.1024 5.076114 0.117029 10.24-1.082514 15.213714-1.506743 10.24-2.399086 20.567771-4.388572 30.734628-2.837943 24.093257-6.626743 48.054857-9.771886 72.104229-0.2048 2.808686-2.340571 4.739657-4.344685 6.4512-8.455314-0.190171-16.925257 0.087771-25.380572-0.117029-1.974857-0.014629-3.730286-0.643657-5.295543-1.857828 0.043886-3.540114 0.190171-7.0656 0.3072-10.591086-3.949714 4.842057-9.5232 8.148114-15.374628 10.1376-2.442971 0.512-4.9152 0.9216-7.358172 1.404343-6.685257 1.141029-13.663086 1.1264-20.333714-0.1024-3.130514-0.497371-6.173257-1.3312-9.186743-2.2528-3.510857-1.653029-7.007086-3.408457-10.049828-5.851429-1.418971-1.696914-2.8672-3.349943-4.388572-4.9152-8.747886-13.911771-7.7824-32.226743-1.111771-46.752914 2.340571-5.354057 6.363429-9.596343 9.9328-14.101943l1.184914 0.497372c-0.131657-0.321829-0.394971-0.980114-0.512-1.301943 2.340571-1.653029 4.608-3.423086 6.816914-5.251657 3.145143-2.033371 6.509714-3.730286 9.903543-5.310172 4.871314-1.857829 9.874286-3.364571 15.082057-3.774171 3.2768-0.775314 6.670629-0.672914 9.962058 0.029257 4.066743 0.336457 8.104229 0.980114 12.010057 2.223543 5.163886 2.311314 10.269257 5.295543 13.341257 10.225371 0.453486-14.306743 4.330057-28.247771 4.988343-42.525257l0.643657-0.131657c0.292571-2.340571 1.872457-4.052114 3.393828-5.705143m-46.036114 56.2176c-3.145143 4.725029-5.997714 9.713371-7.489828 15.228343-2.9696 10.708114-5.193143 22.454857-1.301943 33.221486 0.892343 1.521371 1.784686 3.042743 2.720914 4.578743 1.9456 1.536 3.861943 3.115886 5.807543 4.681142 4.959086 0.175543 10.634971 1.799314 15.0528-1.258057 0.321829 0.029257 0.965486 0.087771 1.301943 0.1024 5.968457-4.271543 10.474057-10.079086 13.180343-16.910628 2.881829-11.688229 4.681143-23.888457 3.569371-35.9424l-1.770057-0.2048 0.9216-1.857829c-3.320686-4.754286-7.943314-9.801143-14.262857-9.552457-6.890057-0.277943-12.814629 3.466971-17.729829 7.914057zM530.826971 387.452343c1.1264-2.911086 4.593371-3.569371 7.358172-3.496229 7.899429-0.058514 15.813486-0.014629 23.727543 0.043886l3.349943 2.296686c-0.043886 2.428343-0.117029 4.885943-0.746058 7.2704-0.482743 3.861943-0.497371 7.826286-1.565257 11.600457-0.365714 3.905829-0.497371 7.840914-1.477485 11.658971-0.234057 7.138743-2.267429 14.058057-2.208915 21.211429l-0.9216 0.146286c-0.058514 4.125257-0.131657 8.309029-1.155657 12.346514-0.789943 7.314286-1.711543 14.628571-2.896457 21.884343-0.877714 10.474057-2.647771 20.845714-3.9936 31.261257-0.190171 2.735543-2.121143 4.608-4.096 6.2464-9.698743 0.043886-19.382857 0.2048-29.066971-0.1024l0.029257-1.565257-1.696915-0.014629c-0.058514-4.622629-0.160914-9.303771 1.141029-13.780114 0.365714-3.905829 0.468114-7.870171 1.506743-11.6736 0.643657-7.343543 1.653029-14.672457 2.823314-21.957486 0.321829-3.8912 0.585143-7.811657 1.492114-11.629714 0.8192-7.797029 1.726171-15.623314 2.984229-23.361829 0.336457-3.437714 0.687543-6.890057 1.360457-10.269257 0.336457-3.452343 0.497371-6.948571 1.448229-10.298514 0.526629-5.983086 0.848457-12.053943 2.603885-17.8176zM103.087543 388.330057c11.1616 0 22.337829-0.336457 33.4848 0.190172 0.789943 4.8128 0.234057 9.654857-0.1024 14.482285l-0.877714 0.029257c-0.160914 4.139886-0.190171 8.338286-1.287315 12.361143-0.3072 3.159771-0.526629 6.319543-0.702171 9.493943l-1.024 0.058514c-0.073143 4.5056-0.263314 9.055086-1.857829 13.341258 2.2528 0.658286 4.578743 1.082514 6.948572 0.980114 20.992 0 41.984-0.043886 62.976 0.014628 1.024-6.933943 1.7408-13.911771 2.779428-20.845714 1.462857-9.289143 2.267429-18.709943 4.3008-27.882057 0.555886-0.3072 1.667657-0.906971 2.223543-1.199543l0.131657-1.067886c11.073829 0.1024 22.176914-0.365714 33.250743 0.263315 0.482743 4.549486 0.424229 9.142857-0.292571 13.663085-1.316571 3.496229-1.038629 7.299657-1.184915 10.971429l-1.024 0.073143c-0.131657 3.203657-0.277943 6.407314-0.7168 9.596343-1.038629 3.510857-1.111771 7.197257-1.287314 10.839771l-0.892343-0.043886c-0.117029 3.701029-0.234057 7.431314-1.170285 11.044572-0.380343 3.408457-0.599771 6.8608-1.506743 10.181486-0.906971 10.795886-2.8672 21.474743-4.359315 32.197485-0.336457 3.408457-0.658286 6.831543-1.477485 10.152229-0.219429 3.642514-0.570514 7.299657-2.1504 10.6496-0.833829 0.497371-2.501486 1.492114-3.335315 2.004114-10.049829 0.2048-20.099657 0.146286-30.149485 0.014629l0.058514-1.579886-1.755429 0.043886c-0.160914-5.588114-0.131657-11.264 1.287315-16.720457 0.643657-6.875429 1.506743-13.765486 2.852571-20.538515 0.394971-6.070857 1.682286-12.010057 2.179657-18.051657-23.069257 0.117029-46.138514 0.014629-69.207771 0.043886 0.014629 0.468114 0.058514 1.389714 0.073143 1.857828-2.223543 7.109486-1.667657 14.818743-3.627886 22.030629-1.506743 10.459429-1.901714 21.240686-5.12 31.349029-6.070857 3.130514-13.151086 1.111771-19.675429 1.667657-5.193143-0.453486-11.029943 1.301943-15.637942-1.828572-0.131657-8.513829 1.448229-16.910629 2.735542-25.278171 3.130514-24.458971 6.919314-48.830171 10.079086-73.274514 1.170286-6.626743 1.360457-13.487543 3.671772-19.850972l1.623771 0.190172-0.234057-1.623772zM302.884571 421.1712c3.832686-0.789943 7.753143-0.936229 11.644343-1.214171 4.286171-1.375086 8.704 0 13.048686 0.2048 7.519086 0.336457 15.316114 1.170286 22.133029 4.608 0.336457 0.014629 1.009371 0.058514 1.345828 0.073142 1.974857 1.155657 3.964343 2.311314 5.9392 3.4816 9.6256 5.778286 15.447771 16.852114 15.403886 28.013715-0.087771 11.556571-3.818057 23.493486-11.8784 32.007314l0.2048 0.6144c-3.715657 3.920457-7.957943 7.2704-12.375772 10.386286-3.496229 1.784686-7.021714 3.540114-10.605714 5.149257-16.676571 6.187886-35.196343 6.787657-52.472686 2.925714-1.492114-0.263314-2.9696-0.512-4.447085-0.760686-2.472229-1.111771-4.973714-2.135771-7.548343-2.984228-5.149257-2.720914-9.786514-6.3488-13.765486-10.620343-0.058514-0.336457-0.190171-0.994743-0.263314-1.3312-8.440686-9.567086-6.334171-23.903086-3.115886-35.2256 4.242286-10.825143 12.244114-19.748571 21.898972-26.082743 2.852571-1.594514 5.749029-3.086629 8.718628-4.476343 1.521371-0.585143 3.057371-1.155657 4.608-1.711543 3.744914-1.360457 7.621486-2.267429 11.527314-3.057371m4.066743 9.713371c-3.335314 2.735543-6.612114 5.632-8.967314 9.289143-2.428343 4.169143-4.213029 8.645486-5.866057 13.165715-0.131657 0.775314-0.424229 2.311314-0.555886 3.072-0.936229 3.306057-1.418971 6.729143-2.311314 10.064457-0.3072 7.343543-1.053257 14.833371 0.424228 22.103771 1.594514 4.081371 4.256914 7.533714 7.285029 10.6496 5.266286 2.940343 11.541943 2.472229 17.290971 1.7408 5.778286-1.623771 9.8304-6.465829 13.399772-11.000686 2.282057-4.7104 4.490971-9.479314 5.880686-14.526171 2.852571-10.883657 4.871314-22.235429 3.159771-33.470171-1.067886-5.339429-4.315429-9.845029-8.952686-12.653715-6.919314-2.004114-14.321371-1.8432-20.7872 1.565257zM614.429257 421.185829c3.861943-0.702171 7.7824-0.9216 11.702857-1.170286 3.349943-0.8192 6.831543-0.906971 10.166857 0.043886 8.528457-0.1024 17.290971 1.082514 24.853943 5.280914 5.7344 2.852571 9.713371 8.572343 10.927543 14.804114 1.1264 7.197257-1.579886 14.189714-1.609143 21.357714l-0.950857 0.043886c-0.073143 3.1744-0.160914 6.407314-1.111771 9.493943-0.438857 2.896457-0.804571 5.8368-1.536 8.704-0.4096 5.0176-1.389714 9.962057-1.799315 14.994286 0.3072 0.775314 0.950857 2.325943 1.272686 3.101257 3.247543 2.7648 7.519086 2.998857 11.556572 3.349943 0.117029 0.965486 0.351086 2.896457 0.482742 3.861943l-3.8912 1.506742c-1.506743 0.263314-3.013486 0.541257-4.5056 0.833829-2.530743 1.038629-5.280914 1.199543-7.957942 1.287314l-0.1024 0.950857c-5.12 0.073143-10.313143 0.658286-15.330743-0.585142-4.725029-0.863086-8.616229-3.6864-11.688229-7.255772-0.512-1.4336-1.009371-2.8672-1.492114-4.3008-4.3008 3.203657-8.352914 7.094857-13.648457 8.6016l-0.190172 0.599772c-3.262171 0.833829-6.509714 1.696914-9.757257 2.472228-5.968457 0.994743-12.039314 0.468114-18.051657 0.468114l-0.117029-0.906971c-3.349943-0.073143-6.641371-0.585143-9.654857-2.062629-0.702171-0.394971-2.106514-1.170286-2.808685-1.550628-1.448229-1.082514-2.8672-2.165029-4.286172-3.247543l-3.496228-4.1984c-2.472229-5.12-2.545371-11.015314-0.994743-16.398629 1.316571-2.121143 2.574629-4.271543 3.920457-6.363428 0.453486-0.4096 1.360457-1.2288 1.813943-1.623772l1.024 0.175543-0.117029-1.301943c3.4816-2.179657 7.0656-4.154514 10.722743-6.026971 3.013486-0.863086 5.983086-1.828571 8.952686-2.837943 6.802286-1.711543 13.750857-2.691657 20.597028-4.154514 4.447086-0.468114 8.821029-1.448229 13.092572-2.750172 2.091886-0.877714 4.154514-1.813943 6.2464-2.706285 1.082514-1.916343 2.121143-3.847314 3.218285-5.763657-0.526629-2.179657-1.082514-4.344686-1.550628-6.524343-4.213029-5.544229-11.293257-8.221257-18.1248-7.943315-9.259886-0.438857-18.197943 2.545371-26.506972 6.334172-1.799314 0.950857-3.657143 1.799314-5.500342 2.6624-1.6384-0.643657-3.2768-1.258057-4.900572-1.857829-0.058514-2.179657-0.117029-4.359314-0.190171-6.524343 4.3008-4.022857 9.947429-6.056229 15.2576-8.323657 1.462857-0.468114 2.925714-0.936229 4.4032-1.389714 3.818057-1.301943 7.723886-2.311314 11.658971-3.159771m13.297372 44.178285c-1.989486 0.438857-3.978971 0.877714-5.924572 1.418972-1.477486 0.512-2.954971 1.038629-4.4032 1.579885-6.436571 1.857829-11.044571 6.904686-13.370514 13.048686-0.468114 3.130514-0.497371 6.304914-0.351086 9.464686 2.618514 3.613257 6.026971 6.714514 10.810514 6.582857 2.911086-0.351086 5.924571-0.702171 8.762515 0.292571l-1.799315-2.135771c0.731429 0.131657 2.208914 0.380343 2.954972 0.512 2.004114-1.667657 4.125257-3.203657 6.275657-4.695771 1.024-1.799314 2.062629-3.584 3.115886-5.354058 0.4096-1.609143 0.863086-3.218286 1.360457-4.798171 0.365714-3.393829 0.658286-6.802286 1.345828-10.1376 0.394971-2.896457 0.775314-5.807543 1.141029-8.704-3.335314 0.906971-6.626743 1.872457-9.918171 2.925714zM753.473829 422.765714c10.898286-3.525486 23.025371-3.013486 33.762742 0.906972 1.887086 1.082514 3.7888 2.135771 5.705143 3.189028 3.028114 2.3552 6.158629 4.651886 8.689372 7.5776 2.735543 3.803429 3.335314 8.689371 3.232914 13.268115-2.311314 14.072686-4.286171 28.218514-6.085486 42.378971-0.833829 3.818057-0.950857 7.738514-1.667657 11.5712-0.453486 2.7648-0.9216 5.675886-3.452343 7.358171l-0.219428 0.8192c-9.537829 0.2048-19.090286 0.277943-28.628115 0-0.526629-0.863086-1.579886-2.574629-2.106514-3.437714 1.4336-17.232457 4.827429-34.260114 6.685257-51.448686 1.316571-4.461714 1.272686-9.230629-0.775314-13.458285-1.492114-1.609143-3.057371-3.115886-4.695771-4.549486-6.802286-2.106514-14.628571-2.442971-20.845715 1.536-3.964343 1.930971-6.144 5.8368-8.528457 9.3184a95.114971 95.114971 0 0 0-1.492114 4.9152l-0.7168 0.014629c-0.131657 3.657143-0.146286 7.387429-1.214172 10.942171-0.336457 3.423086-0.585143 6.890057-1.404342 10.24-0.336457 3.437714-0.497371 6.919314-1.536 10.225371-0.3072 3.452343-0.380343 6.948571-1.3312 10.298515-0.365714 3.042743-0.643657 6.100114-0.8192 9.172114-0.863086 2.530743-2.311314 4.754286-4.476343 6.378057-9.479314-0.131657-18.958629 0.292571-28.423315-0.292571-0.468114-0.833829-1.389714-2.501486-1.857828-3.335315 0.146286-2.033371 0.4096-4.052114 0.789943-6.0416 2.925714-23.552 6.743771-47.0016 9.581714-70.5536 1.243429-1.813943 2.779429-3.3792 4.490971-4.739657 7.431314 0.146286 14.877257 0.029257 22.308572 0.029257 2.399086-0.263314 4.637257 0.482743 6.743771 1.594515 0.438857 2.296686 0.950857 4.564114 1.389715 6.875428 1.360457-1.8432 3.130514-3.320686 5.002971-4.637257 1.9456-1.199543 3.8912-2.413714 5.822171-3.657143 2.018743-0.789943 4.052114-1.609143 6.070858-2.4576zM460.6976 426.920229c4.534857-2.472229 9.742629-1.799314 14.716343-1.8432 6.3488 0.058514 12.712229-0.248686 19.0464 0.3072 1.418971 1.770057 2.413714 3.949714 1.901714 6.275657-3.393829 23.376457-6.436571 46.7968-9.888914 70.158628a18.490514 18.490514 0 0 1-1.2288 4.476343c0 0.4096-0.014629 1.214171-0.014629 1.623772-6.026971 3.715657-13.4144 1.536-20.085028 2.077257-4.8128-0.438857-10.210743 1.214171-14.526172-1.506743l-1.155657-0.336457c-0.058514-4.608 0.336457-9.201371 0.863086-13.780115 0.9216-3.335314 1.097143-6.816914 1.4336-10.24 1.755429-7.650743 1.784686-15.594057 3.525486-23.2448 0.394971-3.423086 0.6144-6.890057 1.4336-10.24 0.380343-3.423086 0.585143-6.875429 1.404342-10.225371 0.336457-3.042743 0.599771-6.085486 0.863086-9.128229 0.570514-1.462857 1.141029-2.925714 1.711543-4.373942zM587.541943 559.601371c1.053257-0.058514 3.159771-0.160914 4.213028-0.219428l-0.029257-1.067886c5.178514 0.219429 10.371657 0.190171 15.5648 0.175543l3.671772 1.521371c0.087771 6.977829-1.067886 13.897143-2.574629 20.6848-0.336457 3.408457-0.555886 6.875429-1.521371 10.196115-0.643657 9.610971-3.364571 18.944-3.774172 28.584228l-0.746057 0.014629c-1.7408 18.461257-5.383314 36.717714-7.8848 55.105828-1.872457 8.206629-1.258057 17.1008-4.856686 24.795429-2.911086 0.658286-5.866057 1.082514-8.835657 0.965486-14.248229-0.160914-28.496457 0.234057-42.730057-0.248686-4.520229-5.412571-0.980114-13.648457 5.880686-14.5408 7.9872-0.731429 16.764343 1.067886 23.9616-3.393829 0.424229-1.565257 0.892343-3.115886 1.418971-4.651885 1.506743-9.289143 2.589257-18.651429 4.344686-27.882057 0.365714-3.423086 0.555886-6.8608 1.448229-10.181486 0.351086-2.530743 0.672914-5.046857 1.038628-7.562972 0.833829-3.847314 0.965486-7.811657 1.9456-11.629714 0.658286-6.363429 1.594514-12.712229 2.823314-19.002514 2.048-13.911771 3.671771-27.925943 6.641372-41.662172zM713.128229 559.542857c1.9456-1.272686 4.169143-1.887086 6.524342-1.682286 6.480457 0.117029 13.019429-0.482743 19.470629 0.468115 0.2048 0.629029 0.629029 1.901714 0.833829 2.530743l1.4336-0.029258-2.516115 4.096 2.530743 1.828572c22.542629 0.131657 45.114514-0.453486 67.642514 0.321828l1.989486 3.218286c0.234057 3.4816-1.3312 6.509714-3.423086 9.157486-4.388571 0.731429-8.835657 0.629029-13.253485 0.570514-18.826971-0.043886-37.653943 0.131657-56.480915-0.058514-0.117029 0.9216-0.365714 2.7648-0.482742 3.701028-1.097143 6.3488-2.048 12.741486-2.794058 19.163429-1.141029 4.052114-1.155657 8.2944-1.492114 12.463543 24.824686 0.175543 49.649371 0.014629 74.474057 0.043886 2.033371 0 4.959086-0.058514 5.690515 2.413714 2.062629 3.671771-0.029257 7.870171-2.325943 10.883657l-1.316572-0.6144 0.1024 1.579886c-26.360686 0.131657-52.721371 0.029257-79.082057 0.058514-1.316571 7.0656-2.4576 14.175086-3.364571 21.328457-1.170286 3.774171-0.965486 7.7824-1.901715 11.615086-0.380343 2.911086-0.643657 5.866057-1.492114 8.704-0.658286 6.407314-1.6384 12.8-2.8672 19.134171-0.351086 3.2768-0.760686 6.597486-2.048 9.669486-4.929829 1.667657-10.181486 1.009371-15.286857 1.111771-3.832686 0.029257-7.753143 0.2048-11.424914-1.141028 0.029257-4.183771 0.263314-8.3968 1.199543-12.478172 2.677029-19.338971 6.421943-38.517029 8.689371-57.899885-25.351314-0.175543-50.717257 0.146286-76.068571-0.160915-0.541257-0.9216-1.623771-2.750171-2.165029-3.671771 0.029257-2.048-0.117029-4.1984 1.111771-5.983086 0.014629-0.424229 0.073143-1.272686 0.1024-1.696914l1.711543 0.043886-0.146285-1.6384c2.135771-0.746057 4.3008-1.462857 6.612114-1.258057 23.786057 0.014629 47.557486 0.1024 71.343543-0.029258 1.565257-11.746743 3.935086-23.405714 4.695771-35.240228-23.434971-0.2048-46.869943 0.321829-70.290286-0.292572-3.262171-4.4032-1.799314-10.093714 2.691658-12.946285 23.317943-0.190171 46.635886-0.146286 69.953828-0.029257 0.497371-2.413714 1.038629-4.827429 1.418972-7.255772zM248.085943 561.137371l-0.073143-1.506742c7.299657-0.087771 14.599314-0.117029 21.898971-0.014629 1.024 7.797029-1.653029 15.403886-1.989485 23.157029 5.046857-0.117029 10.108343-0.160914 15.1552 0.117028 1.667657-6.699886 1.989486-13.633829 3.218285-20.406857 0.468114-0.702171 1.375086-2.091886 1.8432-2.779429 6.9632-0.380343 13.955657-0.131657 20.933486-0.1024l1.462857 3.3792c-1.272686 5.002971-1.536 10.166857-1.609143 15.316115h-1.301942c0.043886 1.097143 0.117029 3.291429 0.160914 4.388571 2.823314 0.029257 5.632 0.087771 8.455314 0.175543 3.774171 5.368686 2.048 13.472914-4.286171 15.959771-2.296686-0.058514-4.578743-0.043886-6.875429-0.058514-0.980114 5.397943-1.857829 10.825143-1.8432 16.340114l-0.906971 0.029258c-0.160914 2.706286-0.380343 5.412571-0.672915 8.118857-1.1264 3.306057-1.243429 6.802286-1.609142 10.254628-0.892343 3.803429-1.082514 7.723886-1.623772 11.600457-2.369829 4.564114-6.436571 7.7824-9.684114 11.658972-3.218286 3.847314-6.465829 7.694629-10.108343 11.146971-0.014629 0.585143-0.029257 1.770057-0.029257 2.3552 1.901714 2.794057 3.715657 5.661257 5.573486 8.4992 0.731429 1.462857 1.462857 2.940343 2.179657 4.432457 0.877714 0.950857 1.755429 1.916343 2.647771 2.8672-0.058514 0.336457-0.2048 1.009371-0.263314 1.345829 2.516114 3.920457 5.207771 7.899429 6.319543 12.4928-2.823314 2.208914-6.538971 1.477486-9.845029 1.653029-4.973714-0.219429-10.0352 0.468114-14.935771-0.512-4.169143-3.4816-7.124114-8.733257-8.469943-13.984915-4.359314 5.149257-9.303771 9.9328-14.5408 14.204343-8.572343-0.380343-17.115429 0.6144-25.687772 0.1024-0.117029-0.892343-0.365714-2.691657-0.482742-3.598628 3.130514-3.232914 5.822171-6.816914 8.762514-10.210743 2.267429-2.486857 4.520229-4.988343 6.714514-7.548343 3.569371-3.978971 7.0656-8.074971 11.190857-11.483429l0.4096-2.9696c-2.720914-3.759543-4.637257-8.031086-7.504457-11.688228-0.014629-0.321829-0.014629-0.980114-0.014628-1.301943-1.989486-2.296686-3.613257-4.842057-5.149258-7.431314-0.687543-2.428343-0.585143-4.959086-0.438857-7.431315 1.287314-3.247543 1.272686-6.773029 1.696915-10.181485 0.980114-3.832686 0.731429-7.870171 1.960228-11.629715 0.585143-5.7344 1.784686-11.3664 2.2528-17.1008-3.320686-0.058514-6.641371-0.073143-9.947428-0.058514-0.746057-0.453486-2.2528-1.360457-2.998858-1.813943-0.599771-1.536-1.2288-3.057371-1.872457-4.549486 0.833829-2.647771 1.784686-5.251657 2.881829-7.767771 4.3008-2.911086 9.610971-1.770057 14.467657-1.813943 0.1024-0.848457 0.336457-2.530743 0.453486-3.364571 1.214171-4.330057 0.775314-8.923429 2.121143-13.2096 0.175543-1.696914 0.336457-3.3792 0.497371-5.061486l1.506743-0.014629m17.217828 37.741715c-1.872457 12.010057-3.920457 24.005486-5.646628 36.0448-0.526629 2.442971-0.234057 4.959086 0.760686 7.255771 1.901714 2.516114 3.818057 5.032229 5.909942 7.416686 0.219429-0.746057 0.643657-2.238171 0.863086-2.984229 1.755429-1.521371 3.349943-3.218286 4.8128-5.0176l0.789943 0.087772c0.980114-2.062629 2.033371-4.110629 2.516114-6.3488 1.594514-12.214857 4.227657-24.283429 5.368686-36.571429-5.134629-0.043886-10.254629-0.043886-15.374629 0.117029zM492.895086 561.4592c12.346514 0 24.590629-1.521371 36.922514-1.755429 0.731429 0.453486 2.208914 1.345829 2.940343 1.799315 0.438857 0.789943 1.301943 2.3552 1.726171 3.145143-0.555886 2.018743-1.111771 4.066743-1.623771 6.114742-2.048 1.726171-4.125257 3.4816-6.787657 4.139886l-0.1024 0.497372c-7.138743-0.058514-14.262857 0.394971-21.386972 0.629028-1.579886 0.394971-3.145143 0.775314-4.725028 1.155657-0.073143 5.792914-1.258057 11.483429-1.901715 17.232457 11.9808 0.2048 24.020114-0.555886 35.971658 0.424229 0.555886 0.8192 1.6384 2.442971 2.194285 3.247543 0.643657 4.344686-0.892343 8.718629-4.578743 11.234743-12.039314 0.541257-24.093257 0.2048-36.132571 0.248685-2.6624 19.1488-5.295543 38.326857-8.543086 57.387886-1.243429 11.381029-2.984229 22.718171-5.046857 33.9968-0.731429 0.424229-2.194286 1.272686-2.925714 1.711543-6.626743-0.087771-13.238857 0.190171-19.850972-0.160914-4.534857-2.267429-0.9216-8.777143-1.550628-12.843886l0.775314 0.073143c0.146286-3.218286 0.380343-6.407314 0.775314-9.596343 2.779429-13.472914 3.598629-27.326171 6.436572-40.799086 0.321829-3.218286 0.526629-6.421943 0.672914-9.640228l0.9216 0.087771c-0.160914-6.846171 1.901714-13.443657 2.179657-20.245943-12.653714-0.2048-25.3952 0.789943-37.9904-0.570514-1.7408-3.540114-2.603886-7.460571-0.438857-11.0592 1.141029-1.053257 2.282057-2.106514 3.408457-3.159771 12.4928-0.687543 25.014857-0.219429 37.522286-0.351086 1.053257-5.295543 1.199543-10.766629 2.852571-15.945143-10.532571-0.541257-20.962743 1.287314-31.466057 1.3312-0.863086-0.453486-2.574629-1.360457-3.423085-1.813943-1.067886-4.5056-0.804571-9.3184 3.364571-12.141714 0.731429-0.380343 2.223543-1.1264 2.9696-1.506743 7.68-0.497371 15.403886-0.2048 23.04-1.258057 7.899429-0.892343 15.9744 0.029257 23.800686-1.609143z"
        fill="#1296db" p-id="7586"></path>
    <path
        d="M325.471086 562.936686c0.760686-0.438857 2.311314-1.3312 3.086628-1.770057 26.580114 0.043886 53.1456-0.073143 79.725715 0.058514 4.227657-0.541257 5.2224 5.2224 2.647771 7.665371-5.368686 5.880686-10.825143 11.688229-16.193829 17.554286-5.924571 6.7584-12.0832 13.312-18.095542 19.982629-1.901714 2.077257-2.472229 4.9152-3.452343 7.460571 11.9808 0.087771 23.976229-0.073143 35.957028-0.073143 4.4032 3.935086 3.2768 10.6496-0.6144 14.511543-2.048 0.468114-4.052114 1.272686-6.187885 1.184914-10.459429 0-20.918857-0.146286-31.378286 0.146286-0.555886 8.689371-2.823314 17.159314-3.584 25.848686-2.7648 14.175086-3.759543 28.686629-7.021714 42.744685-2.7648 1.7408-5.997714 2.238171-9.216 2.091886-14.306743-0.1024-28.628114 0.190171-42.934858-0.234057-3.101257-3.818057-2.223543-8.923429 0.234058-12.8 6.831543-2.925714 14.4384-1.916343 21.679542-2.208914l-0.351085-0.848457c2.340571-0.336457 5.310171 0.438857 7.109485-1.594515 2.282057-1.506743 1.506743-4.549486 2.238172-6.802285 1.521371-2.706286 0.994743-5.9392 1.462857-8.879543 1.550629-7.168 1.872457-14.570057 3.466971-21.738057 0.555886-5.251657 1.477486-10.430171 2.311315-15.637943-10.722743-0.292571-21.445486-0.043886-32.1536-0.1024-2.179657-0.058514-4.139886-1.082514-6.217143-1.609143-0.526629-4.125257-0.980114-8.586971 1.887086-12.010057l3.349942-2.004115c11.834514-0.087771 23.669029 0.087771 35.503543-0.1024 0.234057-2.223543 0.468114-4.417829 0.8192-6.612114 0.468114-3.423086 1.726171-6.626743 4.154515-9.142857 3.057371-3.306057 5.851429-6.831543 8.864914-10.166857 2.794057-4.081371 7.870171-6.992457 8.279771-12.288-15.038171-0.131657-30.076343-0.1024-45.114514-0.058514-4.008229-2.808686-3.920457-7.972571-1.7408-11.8784l1.521371 0.468114-0.043885-1.155657zM549.814857 570.294857l2.984229-1.989486c6.933943 0.438857 13.955657-0.599771 20.831085 0.585143 0.321829 2.033371 0.3072 4.096 0.248686 6.158629-1.3312 3.4816-1.316571 7.255771-1.462857 10.927543l-0.833829-0.131657c-0.160914 3.189029-0.4096 6.392686-0.833828 9.581714-1.389714 6.465829-2.428343 13.048686-2.720914 19.6608l-0.833829 0.117028c-0.336457 6.626743-1.550629 13.165714-2.706286 19.690058-0.775314 6.3488-1.682286 12.682971-2.896457 18.958628-0.4096 3.774171-0.746057 7.5776-1.8432 11.249372-7.0656 2.618514-14.862629 0.585143-22.235428 1.243428l-0.029258-1.4336-1.770057-0.029257c4.052114-31.612343 9.537829-63.049143 14.101943-94.588343zM651.702857 586.327771l3.935086-1.696914c7.533714-0.131657 15.082057 0.014629 22.6304-0.058514 4.622629 5.9392 8.221257 12.639086 12.975543 18.505143 2.077257 1.989486 1.477486 4.9152 1.448228 7.4752-7.050971 0.9216-14.189714 0.497371-21.269943 0.512-1.755429-0.292571-4.008229 0.336457-5.280914-1.2288-4.110629-5.002971-6.992457-10.942171-11.439543-15.681829l-0.029257-1.038628-0.906971-0.277943c-0.746057-1.111771-1.492114-2.223543-2.238172-3.306057l0.175543-3.203658zM765.674057 587.190857c1.857829-2.311314 5.105371-2.004114 7.767772-2.311314 6.743771-0.014629 13.589943-0.6144 20.216685 1.024 0.073143 1.272686 0.146286 2.545371 0.234057 3.847314-5.8368 5.675886-11.498057 11.541943-17.349485 17.217829-1.301943 1.360457-2.618514 2.706286-3.920457 4.066743-8.630857-0.131657-17.334857 0.629029-25.9072-0.541258 0.365714-2.998857 1.726171-5.705143 3.978971-7.738514 5.046857-5.134629 10.005943-10.371657 14.979657-15.5648zM438.710857 626.102857c0.965486-3.598629 2.033371-7.358171 5.441829-9.376914 5.822171 0.336457 11.6736 0.234057 17.5104 0.014628l-0.1024 1.243429c0.775314-0.014629 2.296686-0.043886 3.057371-0.043886-0.073143 3.832686-0.980114 7.562971-1.989486 11.234743-0.760686 2.340571-1.360457 4.725029-2.033371 7.094857-0.8192 2.998857-1.770057 5.953829-2.501486 8.996572-0.570514 1.872457-1.038629 3.7888-1.477485 5.719771-0.468114 1.4336-0.906971 2.896457-1.3312 4.359314-0.599771 1.9456-1.111771 3.920457-1.609143 5.909943-1.097143 3.832686-2.048 7.723886-3.2768 11.527315-1.667657 5.339429-2.4576 10.9568-4.827429 16.062171l-0.087771 0.804571c-6.085486 1.492114-12.361143 1.199543-18.563657 1.082515-1.682286-0.497371-3.349943-0.980114-5.032229-1.4336 0.131657-2.501486 0.321829-4.988343 0.994743-7.402057 5.397943-18.563657 10.810514-37.156571 15.828114-55.793372zM498.658743 618.027886c7.504457-0.453486 15.038171-0.351086 22.557257-0.043886 0.365714 18.783086-0.234057 37.5808-0.014629 56.363886 0.014629 2.413714-0.087771 4.871314-0.7168 7.226514-0.175543 2.603886-0.351086 5.2224-0.555885 7.840914-0.8192 0.365714-2.486857 1.082514-3.320686 1.4336-6.568229 0.014629-13.151086 0.1024-19.719314-0.029257-0.351086-0.8192-1.038629-2.4576-1.389715-3.2768 1.594514-22.059886 0.731429-44.207543 1.521372-66.311314 0.4096-0.804571 1.2288-2.399086 1.6384-3.203657zM664.254171 635.772343c8.952686-0.863086 18.0224-0.687543 27.004343-0.058514-0.131657 3.818057-2.501486 6.846171-4.754285 9.713371-5.193143 7.182629-10.517943 14.277486-15.418515 21.650286-0.965486 0.994743-1.930971 1.989486-2.911085 2.9696-0.1024 0.394971-0.321829 1.184914-0.424229 1.579885-5.456457 6.612114-10.269257 13.736229-15.082057 20.831086l-0.497372 0.029257c-0.599771 3.423086-4.3008 3.072-6.948571 3.247543-7.226514 0.117029-14.467657 0.131657-21.679543-0.234057 0.292571-2.1504-0.175543-4.608 1.287314-6.407314 3.4816-4.330057 6.421943-9.098971 10.093715-13.282743 4.417829-6.612114 9.5232-12.741486 14.160457-19.192686 5.076114-6.933943 10.532571-13.6192 15.169828-20.845714zM740.893257 635.845486c8.6016-0.8192 17.261714-0.512 25.892572-0.292572 0.438857 0.8192 1.301943 2.4576 1.7408 3.2768 0.9216 2.004114 1.887086 3.978971 2.881828 5.953829 1.462857 2.8672 2.852571 5.778286 4.286172 8.660114 0.906971 1.623771 1.8432 3.218286 2.794057 4.856686 2.340571 4.929829 4.666514 9.859657 7.211885 14.701714 1.550629 2.837943 3.057371 5.705143 4.520229 8.616229 1.916343 4.081371 4.520229 7.972571 5.0176 12.580571l-1.755429-0.219428 0.277943 1.579885c-8.543086 0.175543-17.130057 0.555886-25.658514-0.160914-0.453486-0.804571-1.389714-2.428343-1.857829-3.232914-1.667657-3.584-3.335314-7.153371-5.002971-10.722743-1.813943-3.232914-3.525486-6.524343-5.149257-9.845029-1.8432-4.037486-3.876571-7.9872-5.866057-11.936914-1.872457-3.920457-3.818057-7.7824-5.880686-11.600457-1.930971-3.818057-4.227657-7.767771-3.452343-12.214857z"
        fill="#1296db" p-id="7587"></path>
</svg>