<svg t="1754712195707" class="icon" viewBox="0 0 1024 1024" version="1.1" xmlns="http://www.w3.org/2000/svg" p-id="9177"
    width="200" height="200">
    <path
        d="M938.666667 938.666667H85.333333V426.666667l426.666667-341.333334 426.666667 341.333334v512z m-170.666667-418.133334h-311.466667v349.866667H512v-25.6h204.8v25.6H768v-349.866667z m-256 273.066667v-85.333333h76.8v85.333333H512z m128 0v-85.333333h76.8v85.333333H640z m-128-132.266667v-85.333333h76.8v85.333333H512z m128-89.6h76.8v85.333334H640v-85.333334z m-128-251.733333V384h-76.8v51.2H512v59.733333h55.466667v-59.733333h89.6v59.733333h55.466666v-59.733333h76.8V384h-76.8V320h-55.466666V384h-89.6V320H512z m-110.933333 4.266667c-17.066667 25.6-34.133333 51.2-51.2 72.533333-17.066667-21.333333-34.133333-42.666667-55.466667-64l-42.666667 34.133333c25.6 21.333333 42.666667 42.666667 59.733334 68.266667-25.6 21.333333-46.933333 38.4-76.8 51.2l29.866666 46.933333c25.6-17.066667 51.2-34.133333 72.533334-51.2l4.266666 8.533334c4.266667 17.066667 12.8 34.133333 12.8 55.466666-29.866667 51.2-68.266667 93.866667-119.466666 128l34.133333 46.933334c34.133333-25.6 68.266667-59.733333 93.866667-93.866667v46.933333c0 76.8-4.266667 119.466667-17.066667 136.533334-4.266667 0-17.066667 4.266667-34.133333 4.266666s-34.133333 0-51.2-4.266666l17.066666 51.2h46.933334c25.6 0 42.666667-4.266667 55.466666-17.066667 25.6-21.333333 34.133333-76.8 34.133334-174.933333 0-89.6-12.8-157.866667-29.866667-204.8-4.266667-8.533333-4.266667-12.8-8.533333-21.333334 21.333333-25.6 46.933333-55.466667 68.266666-93.866666l-42.666666-25.6z"
        fill="#FFFFFF" p-id="9178"></path>
    <path
        d="M938.666667 938.666667H85.333333V426.666667l426.666667-341.333334 426.666667 341.333334v512z m-170.666667-418.133334h-311.466667v349.866667H512v-25.6h204.8v25.6H768v-349.866667z m-256 273.066667v-85.333333h76.8v85.333333H512z m128 0v-85.333333h76.8v85.333333H640z m-128-132.266667v-85.333333h76.8v85.333333H512z m128-89.6h76.8v85.333334H640v-85.333334z m-128-251.733333V384h-76.8v51.2H512v59.733333h55.466667v-59.733333h89.6v59.733333h55.466666v-59.733333h76.8V384h-76.8V320h-55.466666V384h-89.6V320H512z m-110.933333 4.266667c-17.066667 25.6-34.133333 51.2-51.2 72.533333-17.066667-21.333333-34.133333-42.666667-55.466667-64l-42.666667 34.133333c25.6 21.333333 42.666667 42.666667 59.733334 68.266667-25.6 21.333333-46.933333 38.4-76.8 51.2l29.866666 46.933333c25.6-17.066667 51.2-34.133333 72.533334-51.2l4.266666 8.533334c4.266667 17.066667 12.8 34.133333 12.8 55.466666-29.866667 51.2-68.266667 93.866667-119.466666 128l34.133333 46.933334c34.133333-25.6 68.266667-59.733333 93.866667-93.866667v46.933333c0 76.8-4.266667 119.466667-17.066667 136.533334-4.266667 0-17.066667 4.266667-34.133333 4.266666s-34.133333 0-51.2-4.266666l17.066666 51.2h46.933334c25.6 0 42.666667-4.266667 55.466666-17.066667 25.6-21.333333 34.133333-76.8 34.133334-174.933333 0-89.6-12.8-157.866667-29.866667-204.8-4.266667-8.533333-4.266667-12.8-8.533333-21.333334 21.333333-25.6 46.933333-55.466667 68.266666-93.866666l-42.666666-25.6z"
        fill="#06CA96" p-id="9179"></path>
</svg>