<svg t="1754723102965" class="icon" viewBox="0 0 1456 1024" version="1.1" xmlns="http://www.w3.org/2000/svg" p-id="9985"
    width="200" height="200">
    <path
        d="M944 768a256 256 0 1 1 256 256 256 256 0 0 1-256-256z m176 24a24 24 0 0 0 24 24H1184v56a24 24 0 0 0 48 0V816h40a24 24 0 0 0 0-48H1232v-32h40a24 24 0 0 0 0-48h-10.4L1280 669.6a24 24 0 1 0-33.44-34.4l-32 32-32-32a24 24 0 1 0-34.88 32.96l0.96 0.96L1166.08 688H1144a24 24 0 0 0 0 48H1184v32h-40a24 24 0 0 0-24 24zM96 960a96 96 0 0 1-96-96V96a96 96 0 0 1 96-96h1248a96 96 0 0 1 96 96v460.8A320 320 0 0 0 944 960z m96-336a48 48 0 0 0 48 48h480a48 48 0 0 0 0-96H240a48 48 0 0 0-48 48z m0-304a48 48 0 0 0 48 48h224a48 48 0 0 0 0-96H240a48 48 0 0 0-48 48z"
        p-id="9986" fill="#ffffff"></path>
</svg>