<svg t="1754712099087" class="icon" viewBox="0 0 1024 1024" version="1.1" xmlns="http://www.w3.org/2000/svg" p-id="7000"
    width="200" height="200">
    <path
        d="M843.84 64H180.136C115.976 64 64 116.008 64 180.16v663.704c0 64.16 52.008 116.168 116.136 116.168h663.704c64.152 0 116.16-52.008 116.16-116.168V180.16C960 116.008 907.992 64 843.84 64zM512.2 766.744c-0.256 6.208-2.656 8.752-8.72 10.04-2.664 0.56-5.416 0.672-8.136 1.024-54.672 7.288-109.344 14.608-164.016 21.864-25.984 3.456-51.976 6.904-77.968 10.24-23.504 3.016-24.44 2.168-24.496-20.92-0.032-9.84-0.208-19.672 0.176-29.504 0.376-10.184 2.456-12.352 12.408-13.696 25.44-3.424 50.896-6.704 76.328-10.072 37.352-4.944 74.696-9.976 112.04-14.928 21.104-2.776 42.24-5.472 63.36-8.104 3.784-0.464 7.616-0.792 11.416-0.728 4.16 0.08 7.232 2.92 7.408 7.256 0.32 8.192 0.08 16.392 0.08 24.584h0.184c0.032 7.64 0.264 15.304-0.064 22.944zM200.88 599.712s13.552-72.992 70.336-114c34.68-25.04 101.472-38.536 151.896-15.096-7.376 76.448-67.112 111.776-67.112 111.776s-63.6 53.616-155.12 17.32zM434.536 693.44c-4.36 0.2-8.752 0.376-13.112 0.376-55.76 0.032-111.536 0.064-167.296 0-20.688-0.024-20.776-0.176-20.776-21.184 0-7 0.288-14.024 0.496-22.304 10.88-0.88 19.576-1.672 28.272-2.256 21.512-1.44 42.032-7.024 61.576-15.84a58.192 58.192 0 0 1 25.288-5.232c23.504 0.296 47.04 0.176 70.536 0.056 21.48-0.112 25.936-4.416 25.992-25.984 0.144-52.48 0.08-104.96 0.032-157.464 0-4.832-0.616-9.68-0.88-13.576-4.072-4.744-8.64-4.512-12.88-4.512-38.808-0.056-77.648-0.56-116.456 0.32-23.416 0.528-44.512 10.192-65.032 20.784-4.744 2.456-9.424 5.04-13.672 7.288-4.032-2.104-3.184-5.152-3.248-7.64-0.168-6.56-0.056-13.112-0.056-19.664 0.088-23.92 11.208-41.8 30.64-54.76 14-9.336 29.648-13.64 46.512-13.64 25.136 0.032 50.312 0 75.448-0.064 5.416-0.024 10.8-0.32 16.16-0.496 5.792-9.28 11.76-17.584 13.664-29.232-6.288-0.208-11.68-0.528-17.032-0.528-38.808-0.032-77.648 0.024-116.456 0.024-4.92 0-9.864 0.24-14.752-0.2-20.48-1.84-30.672-21.688-20.48-39.72 1.344-2.368 2.92-4.592 4.504-6.848l40.384-57.8c1.264-1.792 2.432-3.664 3.808-5.328 4.944-6.064 8.576-6.704 15.544-2.344 5.088 3.192 9.888 6.824 14.8 10.304 9.752 6.904 19.472 13.84 29.12 20.752l-3.92 11.24c1.384 0.992 2.2 2.104 3.048 2.136 19.672 0.2 39.36 0.024 59.04 0.56 8.688 0.224 17.44 1.224 25.952 2.888 10.304 2.056 19.52 7 27.688 13.64 21.6 17.504 28.096 43.784 17.04 69.28-2.816 6.464-6.064 12.728-9.4 19.64 3.84 3.008 7.2 5.68 10.592 8.28 17.6 13.464 27.2 30.88 27.16 53.36-0.08 61.224-0.2 122.448 0 183.68 0.208 40.8-33.008 79.84-77.848 82z m388.352-31.144c-0.264 11.064-2.72 13.496-13.664 13.584-26.784 0.2-53.6 0.024-80.376 0.112-6.992 0.032-14.104-0.704-23.296 1.552v19.12c0 32.24 0.088 64.496-0.056 96.752-0.056 15.304-1.584 16.68-17.008 16.856-12.024 0.12-24.056 0.176-36.08-0.024-11.824-0.208-13.904-2.432-14.168-14.752-0.176-8.752-0.056-17.504-0.056-26.256 0-26.248 0.024-52.48-0.064-78.728-0.024-4.24-0.672-8.456-1.136-13.64-6.12-0.32-11.44-0.848-16.776-0.88-25.696-0.08-51.392 0.032-77.088-0.08-15.808-0.064-16.92-1.2-17.096-16.568a1261.2 1261.2 0 0 1 0.12-39.368c0.208-8.104 2.808-10.536 11.008-11.176 3.8-0.296 7.632-0.152 11.472-0.152h87.04c4.592-12 1.992-23.528 2.4-34.736 0.408-10.864-0.032-21.776-0.088-31.52-4.592-4.688-9.128-3.84-13.408-3.864-24.608-0.088-49.2 0.024-73.808-0.088-15.424-0.088-16.8-1.496-17.04-16.832-0.168-10.944-0.056-21.864-0.024-32.808 0-4.92-0.264-9.896 3.04-14.256 5.272-3.712 11.44-2.776 17.36-2.808 21.864-0.088 43.76 0 65.616-0.088 5.384-0.032 10.768-0.496 15.776-0.728 3.216-11.856 3.808-46.096 1.344-65.888-3.92-3.888-9.096-2.6-13.816-2.632-25.136-0.144-50.304-0.056-75.448-0.08-4.36 0-8.784-0.04-13.08-0.56-5.328-0.64-8.136-3.28-8.224-8.488-0.24-16.4-0.296-32.816 0.024-49.2 0.12-6.064 2.984-8.52 9.688-8.696 13.672-0.32 27.336-0.176 41.008-0.2 8.664-0.032 17.32 0 25.168 0 3.336-4.952 0.376-7.376-1.552-9.776-13.464-16.536-27.128-32.896-40.592-49.44-10.16-12.496-10.072-13.632 1.784-23.616a1205.28 1205.28 0 0 1 29.12-24c8.256-6.528 11.12-6.352 17.8 1.552 15.096 18 29.936 36.264 44.896 54.376 3.128 3.808 6.112 7.76 9.568 11.24 8.48 8.488 17.384 8.376 25.52-0.584 4.768-5.24 8.896-11.088 13.256-16.68 11.12-14.192 22.216-28.448 33.336-42.64 2.376-3.016 4.656-6.088 7.288-8.84 3.52-3.664 7.288-3.896 11.824-1.176 0.936 0.56 1.816 1.232 2.664 1.904 11.624 9.104 23.272 18.144 34.768 27.392 2.056 1.64 3.424 4.128 4.744 5.768 0.352 6.296-3.568 9.72-6.496 13.52-12.704 16.448-25.552 32.784-38.344 49.144-2.28 2.928-4.88 5.704-5.144 10.856 3.768 0.384 6.848 0.912 9.92 0.912 13.664 0.08 27.336 0.024 41 0.056 3.832 0 7.672-0.088 11.472 0.24 5.824 0.488 7.904 2.512 8.664 7.92 0.144 1.088 0.264 2.168 0.264 3.256 0.032 14.752 0.232 29.528-0.056 44.28-0.144 8.192-2.696 10.504-10.92 11.184-4.36 0.344-8.752 0.2-13.112 0.2-23.504 0.032-47.032-0.032-70.536 0.056-5.32 0.032-10.624 0.56-15.6 0.824-2.776 13.344-3.072 50.896-0.728 66.144 4.856 3.304 10.48 2.256 15.84 2.28 22.968 0.12 45.92-0.024 68.888 0.12 5.888 0.032 12.088-1.056 17.624 3.04 0.584 1.32 1.784 2.784 1.808 4.24 0.24 16.4 0.56 32.784 0.328 49.176-0.12 7.552-2.576 9.864-10.016 10.04-12.024 0.32-24.056 0.144-36.08 0.176-14.232 0.032-28.448-0.056-42.64 0.032-4.832 0.024-9.664 0.464-15.344 0.76-3.6 11.584-1.52 23.064-1.816 34.272-0.288 10.824 0.152 21.68 0.264 33.536 5.064 0.584 9.224 1.496 13.376 1.52 26.256 0.152 52.504 0.096 78.728 0.096 3.28 0 6.56-0.088 9.84 0.024 12.112 0.416 14.808 2.696 15.072 14.224 0.352 13.256 0.352 26.4 0.056 39.52z"
        fill="#8CD200" p-id="7001"></path>
</svg>