<svg t="1754712489059" class="icon" viewBox="0 0 1024 1024" version="1.1" xmlns="http://www.w3.org/2000/svg"
    p-id="18629" width="200" height="200">
    <path
        d="M871.424 557.568h-601.6v-82.944c0-15.872 12.8-28.672 28.672-28.672h424.96c15.872 0 28.672 12.8 28.672 28.672v32.768c0 15.872 12.8 28.16 28.672 28.16s28.672-12.8 28.672-28.672v-32.768c0-47.616-38.4-86.016-86.016-86.016h-424.96c-47.616 0-86.016 38.4-86.016 86.016v82.432h-61.952c-31.744 0-57.344 25.6-57.344 57.344v317.44c0 31.744 25.6 57.344 57.344 57.344h720.384c31.744 0 57.344-25.6 57.344-57.344V614.4c0-31.232-25.6-56.832-56.832-56.832zM870.4 931.84H150.528V615.424H870.4V931.84zM493.056 357.376c7.168 1.024 14.336 1.536 20.992 1.536 64 0 109.568-37.888 116.736-96.768 4.096-34.816-3.584-68.096-23.552-99.84-17.92-28.16-45.568-55.296-82.944-80.384-17.408-11.776-37.376-23.04-57.856-32.768-8.704-4.096-18.944-3.584-27.136 1.536s-12.8 14.336-12.8 24.064c1.024 43.52-6.656 113.152-12.288 161.792-4.096 31.744-1.536 55.808 7.168 74.752 9.216 17.92 28.672 40.96 71.68 46.08z m-24.064-114.688c4.096-35.84 9.728-82.432 11.776-123.392 4.608 2.56 8.704 5.632 12.8 8.192 30.72 20.48 53.248 41.984 67.072 64 13.312 20.992 18.432 41.984 15.36 64-2.048 15.36-8.192 27.136-18.432 35.328-10.752 8.192-26.112 12.8-44.032 12.8-4.608 0-9.216-0.512-14.336-1.024-21.504-2.56-36.352-8.192-30.208-59.904z"
        fill="#F79B18" p-id="18630"></path>
    <path
        d="M780.288 701.44s-95.744-18.432-269.824-18.432-271.36 18.432-271.36 18.432a29.696 29.696 0 0 0-29.696 27.648c-0.512 16.384 12.8 29.696 28.672 29.696l63.488-24.064c27.136-10.24 57.344-9.216 83.968 3.072l44.544 20.48 37.888-17.92c29.696-13.824 63.488-13.824 93.184 0l37.888 17.92 39.424-18.944c27.648-13.312 59.392-14.336 87.552-2.56l54.272 22.016c16.384 0 29.184-13.312 28.672-29.696 0.512-15.36-12.8-27.648-28.672-27.648z"
        fill="#F79B18" p-id="18631"></path>
</svg>