<svg t="1754712279814" class="icon" viewBox="0 0 1024 1024" version="1.1" xmlns="http://www.w3.org/2000/svg"
    p-id="11976" width="200" height="200">
    <path
        d="M890.3 292.8c-10.1-14.7-21.1-24.2-25.6-27.8-0.5-10.3-3.9-18.6-10.1-24.7-10.8-10.4-25.9-10.1-26.5-10.1h-0.5c-11.7 1.4-20.4 6.1-26.1 14-10 14.1-6.2 32.9-6 33.7 4.7 22.3 32.8 25.5 39.6 26 17.2 10.7 27.5 23.5 30.8 38 4.5 19.9-5.3 37.7-9.7 44.4-2.2 3.3-8.9 4.4-16.8 4.4-3.5-11-8.1-23.1-14.1-35-8.3-16.4-17.9-30.2-28.8-41.1-16.7-41.8-36-74.7-58.6-99.8-33.8-37.4-74.8-56.5-121.9-56.5-14.6 0-30 1.8-45.9 5.5-7.8 1.8-16.1 5-24.9 8.4-14.9 5.8-31.9 12.4-48.6 12.4-6.3 0-12.1-0.9-17.8-2.7-31.8-10.3-61.7-15.6-88.8-15.6-28 0-53.5 5.5-75.8 16.5-18 8.8-33.9 21-47.3 36.4-10 11.4-17.1 22.8-21.9 32.1-11.8 5.5-23.4 14.8-32.3 23.2-23.3 21.7-53.8 86.5-59.7 99.3-0.3 0.7-0.6 1.5-0.9 2.2-12.7 34.8-21 67.9-24.8 99.4-11.9 3.7-27.2 10.2-41.8 21.2-16.4 12.3-28 38.3-28.4 63.2-0.3 16.4 4.2 39.8 27 58.1 19.3 15.5 46.9 21 71.4 22.4 2.1 3.8 4.3 7.5 6.6 11.2 20.4 32.8 49.2 61.9 85.6 86.7 29.2 19.8 63.4 37 101.7 50.9 4.9 1.8 9.8 3.5 14.5 5.1l0.2 3.2c-0.1 4.7-0.6 9.8-1.3 13.5-2.5-0.8-4.7-1.7-5.6-2.4-2.6-3.6-6.3-7-10.3-9.6-3.6-2.3-9.1-5.1-15.2-5.1-6 0-11.1 2.6-14.5 7.4-3 4.2-4.5 9.7-4.5 16.9 0 5.5 0.8 13.5 8.2 18.9 4.5 3.3 9.8 4.5 17.1 6.3 2.9 0.7 6.1 1.5 9.8 2.5 12 3.3 19.9 4.3 25.7 5 3.3 0.4 5.8 0.7 7.1 1.3 2.1 0.9 4.4 1.4 6.8 1.4 6.8 0 13.6-3.8 17.4-9.6 3.8-5.9 4.3-13.2 1.3-20.1-0.4-0.8-0.7-4.7 1.9-12.8 0.4-1.3 0.9-2.5 1.3-3.6 38.4 9.6 66.5 12.9 70.9 13.4 0.2 0 0.4 0.1 0.7 0.1 11.3 2.2 48.4 2.3 48.8 2.3H532.5c1.7-0.1 42.4-1.8 94.9-17.5 6.3-1.9 12.4-3.9 18.4-6 4.9 12 5 16.5 5 17.4-0.8 2-2.2 3.9-3.7 5.8-2.2 2.9-4.6 6.1-5.6 10.4-1.3 5.6 0 11.1 4.1 16.3 0.4 0.5 0.7 0.9 1 1.3 3.3 4.3 6.7 8.8 15.4 8.8 1.7 0 3.5-0.1 6.1-0.3 4.5-0.4 11.2-0.9 22.2-0.9H693.4c1.3 0 2.9 0.1 4.5 0.1 4.8 0 11.9-0.2 18.2-2.2 12.1-3.8 15.3-12.1 16.1-16.8l0.1-0.4c0.8-4.6 2.3-13.1-3.6-20.1-4.4-5.2-11.2-7.7-20.8-7.7-4.4 0-9.4 0.5-15.2 1.6-0.8-1.3-2.2-4.4-3.1-11-0.7-5.8-0.7-12.7-0.1-20.4 7.8-3.8 15.5-7.9 22.8-12.2 32-18.6 59.2-41.5 80.7-67.9 53.7-65.9 73-153.6 57.5-260.7 0.7 0 1.4-0.1 2-0.1h0.4c22.6-2.3 39.3-15.1 48.4-37 6.1-14.6 6.7-28.5 6.8-31.4 5.3-27.4-0.9-54.8-17.8-79.5zM692.9 823.4c-0.4 0.1-0.8 0.1-1.1 0.1h0.2c0.3 0 0.6 0 0.9-0.1z m-9.4-5.2c-2.2-3.8-3.8-9.5-4.5-16.7 0.7 7.2 2.3 12.8 4.5 16.7 0-0.1 0-0.1 0 0z m-4.9-25.3v0z m0 2.3v0z m0.1 2.2c0 0.3 0 0.7 0.1 1 0-0.3-0.1-0.6-0.1-1z m0.2 2.1c0 0.5 0.1 0.9 0.1 1.4-0.1-0.5-0.1-0.9-0.1-1.4zM135.5 592.4c-7.9 0.5-17-0.2-23.4-4.3-4.4-2.9-7.1-7.1-8-13-1.4-9.1 3.1-27.1 15.1-35.8 2-1.4 4.1-2.5 6.2-3.3 1.4 19.7 4.7 38.4 10.1 56.4z m-0.2-57.7h0.2c1.4 20.2 4.9 39 10.2 56.4h-0.2c-5.2-17.3-8.8-36.1-10.2-56.4z m652.6-214.1l-0.2-0.2v-0.1c0 0.1 0.1 0.2 0.2 0.3 0-0.1 0 0 0 0z m-488.7-117c0.1-0.1 0.2-0.2 0.3-0.2-0.1 0-0.2 0.1-0.3 0.2zM811 351c-1-1.7-2-3.5-3.1-5.2 1 1.7 2.1 3.4 3.1 5.2zM572.6 173.7c15.2-3.5 29.7-5.2 43.4-5.2 77.6 0 128.5 54.2 163.4 131.9l-0.1-0.1c-41-91.2-104.3-150.1-206.9-126.5-5.3 1.2-10.9 3.2-17 5.5 6.1-2.3 11.9-4.4 17.2-5.6z m-182.4 2.8c24.4 0 52.8 4.4 85.6 15.1 7.1 2.3 14.1 3.2 21 3.2 6.7 0 13.3-0.9 19.8-2.3-13.2 3-27.1 3.8-41.1-0.8-82-26.7-136.2-14.1-171.2 8.5 21-13.7 49-23.7 85.9-23.7z m128.7 15.4c-0.2 0-0.3 0.1-0.5 0.1 0.2 0 0.4 0 0.5-0.1z m-217 9.8c0.5-0.3 1-0.7 1.5-1-0.5 0.4-1 0.7-1.5 1zM161.5 379.3c0.2-0.5 0.4-1 0.6-1.4 3.5-7.7 35-75.3 57.4-96.1 6.1-5.5 12.3-10.5 18.3-14.6-6 4.1-12.2 9.1-18.1 14.7-22.4 20.8-53.9 88.4-57.4 96.1-0.2 0.5-0.4 0.9-0.6 1.4-12.3 33.6-19.9 64.5-23.8 93.1h-0.2c3.8-28.5 11.5-59.6 23.8-93.2z m5.8 261.4c0.1 0 0.1 0 0 0 25.1 42.8 62.1 75 102 99.3-39.9-24.2-76.9-56.5-102-99.3z m121.8 110.6c-0.1-0.1-0.3-0.1-0.4-0.2 0.1 0 0.2 0.1 0.4 0.2z m-4-2.2c-0.5-0.3-0.9-0.5-1.4-0.8 0.5 0.3 0.9 0.6 1.4 0.8z m-3.9-2.2c-0.6-0.3-1.1-0.6-1.7-1 0.5 0.4 1.1 0.7 1.7 1z m-5.1-2.9c-0.9-0.5-1.8-1-2.7-1.6 0.9 0.6 1.8 1.1 2.7 1.6z m-3.7-2.1c-1-0.6-2-1.2-2.9-1.8 0.9 0.6 1.9 1.2 2.9 1.8z m102 55.7c-0.1 2.2-0.5 14-2.8 20.6 2.3-6.9 2.6-18.9 2.8-20.6-0.1 0-0.1 0 0 0z m10.3 45.2c-5.9-2.5-14-1.3-34.2-6.8s-27.6-4-27.6-17.8c0-5.4 1.1-9 2.8-11.2-1.6 2.2-2.7 5.8-2.7 11.1 0 13.8 7.4 12.3 27.6 17.8 20.2 5.5 28.2 4.2 34.2 6.8 1.6 0.7 3.6 0.7 5.6 0.1-1 0.3-1.9 0.5-2.9 0.5s-1.9-0.2-2.8-0.5z m270.7-46.5c3 7.5 5.6 15.4 5.6 20.7 0-5.3-2.6-13.2-5.6-20.7z m42.4 52.3c-2.8 0-5.4-0.1-7.3-0.1h-0.3c-17 0.1-24.2 1.3-28.2 1.3s-4.5-1.2-8.3-6.2c-1.8-2.3-2.5-4.3-2.5-6.1 0 1.8 0.7 3.7 2.5 6 7.6 9.7 2.1 5.1 36.5 4.9 8.4-0.1 29.7 1.9 31.8-10.4 0.1-0.7 0.2-1.4 0.4-2.1-0.1 0.8-0.2 1.5-0.4 2.2-1.6 9.4-14.5 10.5-24.2 10.5z"
        fill="#992E2E" p-id="11977"></path>
    <path
        d="M616 158.3c47.1 0 88.1 19.1 121.9 56.5 22.6 25.1 41.9 57.9 58.6 99.8 10.9 11 20.5 24.7 28.8 41.1 6 11.9 10.6 23.9 14.1 35h0.6c7.7 0 14.1-1.2 16.2-4.4 4.4-6.7 14.2-24.5 9.7-44.4-3.3-14.5-13.6-27.3-30.8-38-6.8-0.5-34.9-3.7-39.6-26-0.2-0.8-4-19.6 6-33.7 5.7-7.9 14.4-12.6 26.1-14h0.7c2 0 16.1 0.3 26.3 10.1 6.2 6.1 9.6 14.4 10.1 24.7 4.5 3.6 15.5 13.1 25.6 27.8 16.9 24.7 23.1 52.1 17.8 79.5-0.1 2.9-0.7 16.8-6.8 31.4-9.1 21.9-25.8 34.7-48.4 37h-0.4c-0.7 0-1.3 0-2 0.1 15.5 107.1-3.8 194.8-57.5 260.7-21.5 26.4-48.7 49.3-80.7 67.9-7.4 4.3-15 8.4-22.8 12.2-0.6 7.7-0.6 14.6 0.1 20.4 0.9 6.6 2.3 9.7 3.1 11 5.8-1.1 10.8-1.6 15.2-1.6 9.6 0 16.4 2.5 20.8 7.7 5.9 7 4.4 15.5 3.6 20.1l-0.1 0.4c-0.8 4.7-4 13-16.1 16.8-6.3 2-13.4 2.2-18.2 2.2-1.6 0-3.2-0.1-4.5-0.1H690.3c-11 0-17.7 0.5-22.2 0.9-2.6 0.2-4.4 0.3-6.1 0.3-8.7 0-12.1-4.5-15.4-8.8-0.3-0.4-0.6-0.8-1-1.3-4.1-5.2-5.4-10.7-4.1-16.3 1-4.3 3.4-7.5 5.6-10.4 1.5-1.9 2.9-3.8 3.7-5.8 0-0.8-0.1-5.3-5-17.4-6 2.1-12.2 4.1-18.4 6-52.5 15.7-93.2 17.4-94.9 17.5H529.7c-0.4 0-37.5-0.1-48.8-2.3-0.3 0-0.5-0.1-0.7-0.1-4.3-0.5-32.5-3.8-70.9-13.4-0.4 1.1-0.9 2.4-1.3 3.6-2.6 8.1-2.3 12-1.9 12.8 3 6.9 2.5 14.2-1.3 20.1-3.8 5.8-10.6 9.6-17.4 9.6-2.4 0-4.7-0.5-6.8-1.4-1.3-0.6-3.8-0.9-7.1-1.3-5.8-0.7-13.7-1.7-25.7-5-3.7-1-6.9-1.8-9.8-2.5-7.3-1.8-12.6-3-17.1-6.3-7.4-5.4-8.2-13.4-8.2-18.9 0-7.2 1.5-12.7 4.5-16.9 3.4-4.8 8.5-7.4 14.5-7.4 6.1 0 11.6 2.8 15.2 5.1 4 2.6 7.7 6 10.3 9.6 0.9 0.7 3.1 1.6 5.6 2.4 0.7-3.7 1.2-8.8 1.3-13.5l-0.2-3.2c-4.8-1.6-9.6-3.3-14.5-5.1-38.3-13.9-72.5-31.1-101.7-50.9-36.4-24.8-65.2-53.9-85.6-86.7-2.3-3.7-4.5-7.4-6.6-11.2-24.5-1.4-52.1-6.9-71.4-22.4-22.8-18.3-27.3-41.7-27-58.1 0.4-24.9 12-50.9 28.4-63.2 14.6-11 29.9-17.5 41.8-21.2 3.9-31.5 12.1-64.6 24.8-99.4 0.3-0.7 0.6-1.5 0.9-2.2 5.9-12.8 36.4-77.6 59.7-99.3 8.9-8.3 20.5-17.7 32.3-23.2 4.8-9.3 11.9-20.7 21.9-32.1 13.4-15.4 29.3-27.6 47.3-36.4 22.3-11 47.8-16.5 75.8-16.5 27.1 0 57 5.3 88.8 15.6 5.7 1.8 11.5 2.7 17.8 2.7 16.7 0 33.7-6.6 48.6-12.4 8.8-3.4 17.1-6.6 24.9-8.4 15.9-3.7 31.3-5.5 45.9-5.5m-60.6 21c6-2.3 11.7-4.3 17-5.5 15.4-3.5 29.9-5.2 43.6-5.2 77.5 0 128.5 54.2 163.3 131.7l0.1 0.1c-34.8-77.7-85.8-131.9-163.4-131.9-13.7 0-28.2 1.7-43.4 5.2-5.3 1.2-11.1 3.3-17.2 5.6m-251.2 20.9c21-13.6 49-23.5 85.7-23.5 24.4 0 52.8 4.4 85.5 15 7 2.3 14 3.2 20.8 3.2 6.9 0 13.7-0.9 20.3-2.4-6.5 1.4-13.1 2.3-19.8 2.3-6.9 0-13.9-0.9-21-3.2-32.8-10.7-61.2-15.1-85.6-15.1-36.8 0-64.8 10-85.9 23.7m214.5-8.2c-0.1 0-0.2 0-0.2 0.1 0-0.1 0.1-0.1 0.2-0.1s0.2 0 0.2-0.1c0 0-0.1 0.1-0.2 0.1m-215.3 8.7c-0.3 0.2-0.5 0.3-0.8 0.5-0.3 0.2-0.5 0.4-0.8 0.5 0.3-0.2 0.5-0.4 0.8-0.5 0.3-0.2 0.6-0.3 0.8-0.5m-3.9 2.7l-0.1 0.1c-0.1 0-0.1 0.1-0.2 0.1 0.1 0 0.1-0.1 0.2-0.1l0.1-0.1M137.7 472.6h0.2c3.9-28.6 11.5-59.6 23.8-93.1 0.2-0.5 0.4-0.9 0.6-1.4 3.5-7.7 35-75.3 57.4-96.1 6-5.6 12.1-10.6 18.1-14.7-6 4.1-12.3 9.1-18.3 14.6-22.4 20.8-53.9 88.4-57.4 96.1-0.2 0.4-0.4 0.9-0.6 1.4-12.3 33.5-20 64.6-23.8 93.2m650.2-152s0-0.1 0 0c-0.1-0.1-0.2-0.2-0.2-0.3v0.1c0 0.1 0.1 0.1 0.2 0.2M811 351c-1-1.8-2.1-3.5-3.1-5.2 1.1 1.7 2.1 3.4 3.1 5.2M145.6 591.2h0.2c-5.3-17.4-8.9-36.2-10.2-56.4h-0.2c1.3 20.2 4.9 39 10.2 56.4m-14.5 1.3c1.5 0 2.9 0 4.3-0.1-5.3-18-8.7-36.8-10.1-56.3-2.2 0.8-4.3 1.8-6.2 3.3-12 8.7-16.5 26.7-15.1 35.8 0.9 5.9 3.6 10.1 8 13 5.4 3.3 12.4 4.3 19.1 4.3M269.3 740c-39.9-24.3-76.9-56.5-101.9-99.3 25 42.8 62 75.1 101.9 99.3m1.9 1.2c0.4 0.2 0.8 0.5 1.2 0.7-0.4-0.3-0.8-0.5-1.2-0.7-0.6-0.4-1.2-0.7-1.8-1.1 0.7 0.4 1.2 0.7 1.8 1.1m3.7 2.2c0.4 0.2 0.8 0.4 1.1 0.7-0.3-0.3-0.7-0.5-1.1-0.7-0.5-0.3-1-0.6-1.6-0.9 0.6 0.3 1.1 0.6 1.6 0.9m5.4 3.1c0.3 0.2 0.6 0.3 0.9 0.5-0.3-0.2-0.6-0.4-0.9-0.5-0.3-0.2-0.6-0.3-0.8-0.5 0.2 0.1 0.5 0.3 0.8 0.5m4.3 2.3l0.6 0.3c-0.3-0.1-0.5-0.2-0.6-0.3-0.3-0.2-0.6-0.3-0.9-0.5 0.3 0.2 0.6 0.4 0.9 0.5m4.5 2.5c-0.1-0.1-0.3-0.1-0.4-0.2 0.1 0 0.2 0.1 0.4 0.2M678.6 793v-0.1 0.1m0 2.5v0.3c0.1-0.1 0-0.2 0-0.3v-0.3 0.3M661 817c0-5.3-2.5-13.2-5.6-20.7 3 7.5 5.6 15.4 5.6 20.7m17.7-19.2v0.6c0.1-0.2 0.1-0.4 0-0.6v-0.4 0.4m-307.2 20.4c2.4-6.6 2.8-18.5 2.8-20.6h-0.1c0 1.7-0.3 13.7-2.7 20.6m307.4-18c0 0.2 0 0.5 0.1 0.7 0-0.2-0.1-0.5-0.1-0.7 0-0.2 0-0.5-0.1-0.7 0.1 0.2 0.1 0.5 0.1 0.7m4.6 18c0-0.1 0-0.1 0 0-2.2-3.8-3.8-9.5-4.5-16.7 0.7 7.2 2.3 12.9 4.5 16.7m-296 25.1c0.9 0 1.9-0.2 2.9-0.5-0.9 0.3-1.9 0.4-2.8 0.4-1 0-2-0.2-2.8-0.6-6-2.6-14-1.3-34.2-6.8-20.2-5.5-27.6-4-27.6-17.8 0-5.3 1-8.9 2.7-11.1-1.7 2.2-2.8 5.8-2.8 11.2 0 13.8 7.4 12.3 27.6 17.8 20.2 5.5 28.3 4.3 34.2 6.8 0.9 0.4 1.8 0.6 2.8 0.6m305.4-19.9s-0.1 0 0 0c-0.4 0.1-0.6 0.1-0.9 0.1h-0.2c0.3 0 0.7 0 1.1-0.1-0.1 0 0 0 0 0m4.7 25.1c-2.6 0-4.9-0.1-6.7-0.1h-0.7c-16.9 0.1-24.2 1.3-28.1 1.3-4 0-4.5-1.2-8.4-6.2-1.8-2.3-2.5-4.2-2.5-6 0 1.8 0.7 3.8 2.5 6.1 3.8 5 4.3 6.2 8.3 6.2s11.2-1.2 28.2-1.3h0.3c1.9 0 4.5 0.1 7.3 0.1 9.7 0 22.6-1.1 24.2-10.5 0.1-0.7 0.2-1.4 0.4-2.2-0.1 0.7-0.2 1.4-0.4 2.1-1.6 9.5-14.7 10.5-24.4 10.5M616 148.3c-15.5 0-31.7 1.9-48.2 5.8-8.5 2-17.1 5.3-26.2 8.8-14.1 5.5-30.1 11.7-45 11.7-5.2 0-10-0.7-14.8-2.2-32.9-10.7-63.8-16.1-91.8-16.1-29.6 0-56.6 5.9-80.2 17.5-19.2 9.4-36.2 22.5-50.4 38.8-8.3 9.5-15.6 19.9-21.7 31.1-10 5.2-20.7 13-31.8 23.4-24 22.3-53.5 84-62 102.4l-0.1 0.1-0.1 0.1c-0.2 0.4-0.4 0.9-0.5 1.3-0.1 0.3-0.2 0.6-0.4 0.9l-0.1 0.3-0.1 0.3c-12.1 33-20.3 65-24.5 95.3-14.2 5.1-27.2 12-38.7 20.7-18.9 14.2-31.9 42.7-32.4 71-0.3 18.6 4.7 45.2 30.7 66.1 17 13.6 41.1 21.8 71.6 24.2 1.3 2.3 2.7 4.6 4.1 6.9 21.1 33.9 50.8 64 88.5 89.7 22.7 15.4 48 29.1 75.7 40.9-3.4 1.9-6.4 4.6-8.8 8-4.3 6-6.3 13.4-6.3 22.7 0 4.5 0 18 12.3 27 5.9 4.3 12.3 5.9 19.6 7.7l1 0.2c3.5 0.8 6.5 1.6 9.6 2.4 13 3.6 21.5 4.6 27.1 5.3h0.1c1.6 0.2 3.7 0.4 4.5 0.6 3.4 1.4 6.9 2.1 10.6 2.1 10.2 0 20.1-5.4 25.8-14.1 5.4-8.3 6.3-18.5 2.7-28 0-0.4 0.1-1.1 0.3-1.9 33.2 7.8 57.2 10.8 62.7 11.4 0.2 0 0.5 0.1 0.7 0.1 13.1 2.4 49.8 2.4 50.2 2.4h3.6c7.5-0.4 47.4-3.1 97-17.9 3.1-0.9 6.3-1.9 9.5-2.9 0.3 1.1 0.6 2.1 0.7 2.8-0.4 0.6-0.9 1.2-1.2 1.6l-0.1 0.1-0.1 0.1c-2.5 3.3-5.9 7.7-7.4 14.2-2 8.7 0.1 17.2 6 24.8 0.3 0.4 0.6 0.7 0.8 1.1l0.1 0.1c3.6 4.7 9.7 12.6 23.3 12.6 2.1 0 4.3-0.1 6.9-0.3h0.2c4.8-0.4 11.1-0.9 21.3-0.9h4.8c0.8 0 1.8 0.1 2.8 0.1 6 0 13.8-0.3 21.2-2.7 17.4-5.5 21.8-18.5 22.9-24.2v-0.1l0.1-0.4 0.1-0.4c0.9-5.3 3.1-17.7-5.8-28.3-6.3-7.5-15.9-11.3-28.4-11.3-2.6 0-5.3 0.1-8.2 0.5-0.1-0.4-0.1-0.7-0.2-1.1-0.4-3.7-0.6-8-0.4-12.8 6.3-3.2 12.4-6.5 18.2-9.9 33-19.2 61.1-42.8 83.4-70.2 53.8-66.1 74.3-152.9 61-258.4 9.9-2.1 18.8-6.1 26.5-12 9.6-7.3 17.1-17.4 22.3-30 6-14.3 7.3-28.1 7.5-34.1 5.5-29.7-1.2-59.5-19.5-86.3-8.7-12.7-18-21.8-24.3-27.2-1.3-10.8-5.6-19.8-12.7-26.8-12.4-12-28.6-12.9-33.2-12.9H827l-0.6 0.1c-14.5 1.7-25.6 7.8-33 18.1-6.3 8.8-8.2 18.8-8.6 26.9-11.9-22.2-24.9-41.1-39.4-57.2-36-39.6-79.5-59.7-129.4-59.7zM805 309c-0.6-1.6-1.3-3.1-1.9-4.7 2.3 1.5 4.8 2.8 7.4 3.9 7.9 3.4 16 4.8 21.2 5.4 13.6 8.9 21.8 19.2 24.4 30.5 3.4 15.2-3.7 29.4-7.6 35.6-0.4 0.1-1.1 0.3-2 0.5-3.6-10.3-7.7-20-12.2-29-8.5-16.5-18.3-30.7-29.3-42.2zM117.5 579.7c-1.5-1-3-2.5-3.6-6.1-0.5-3.5 0.5-10.5 3.6-16.8 1.2 8.4 2.8 16.7 4.7 24.8-1.8-0.4-3.4-1.1-4.7-1.9z"
        fill="#992E2E" p-id="11978"></path>
    <path
        d="M647.5 777.7s18.7 35.2 14.9 45.4-13.9 14-6.8 23.1c7.6 9.7 2.1 5.1 36.5 4.9 8.4-0.1 29.7 1.9 31.8-10.4 1.3-7.4 4.2-21-29.1-14.6-11.3 2.2-17.6-19.3-12.5-53.7l-34.8 5.3z"
        fill="#B75A32" p-id="11979"></path>
    <path
        d="M682.3 772.4c-4.9 32.8 0.7 53.8 11 53.8 0.5 0 1 0 1.5-0.1 6-1.1 10.8-1.6 14.7-1.6 17.6 0 15.4 10.3 14.4 16.3-1.6 9.4-14.5 10.5-24.2 10.5-2.8 0-5.4-0.1-7.3-0.1h-0.3c-17 0.1-24.2 1.3-28.2 1.3s-4.5-1.2-8.3-6.2c-7.1-9.2 3-12.9 6.8-23.1 3.8-10.2-14.9-45.4-14.9-45.4l34.8-5.4m0-10.2h-0.3c-0.5 0-0.9 0.1-1.4 0.1l-34.6 5.3c-3.3 0.5-6.1 2.5-7.6 5.5-1.5 2.9-1.4 6.4 0.1 9.3 0 0.1 4.1 7.8 7.9 16.8 6.2 14.5 6.3 19.7 6.3 20.6-0.8 2-2.2 3.9-3.7 5.8-2.2 2.9-4.6 6.1-5.6 10.4-1.3 5.6 0 11.1 4.1 16.3 0.4 0.5 0.7 0.9 1 1.3 3.3 4.3 6.7 8.8 15.4 8.8 1.7 0 3.5-0.1 6.1-0.3 4.5-0.4 11.2-0.9 22.2-0.9H695.3c1.3 0 2.9 0.1 4.5 0.1 4.8 0 11.9-0.2 18.2-2.2 12.1-3.8 15.3-12.1 16.1-16.8l0.1-0.4c0.8-4.6 2.3-13.1-3.6-20.1-4.4-5.2-11.2-7.7-20.8-7.7-4.4 0-9.4 0.5-15.2 1.6-0.8-1.3-2.2-4.4-3.1-11-1-8.3-0.7-18.9 1.1-30.7 0.1-0.6 0.2-1.2 0.2-1.8 0-5.6-4.5-10.1-10-10.2-0.4 0.2-0.5 0.2-0.5 0.2z m0 20.3z"
        fill="#992E2E" p-id="11980"></path>
    <path
        d="M376.3 799.9s-0.4 25.5-6.8 25.5c0 0-14.7-2.9-18.3-7.9-6.8-9.5-26.3-20.1-26.3 3.3 0 13.8 7.4 12.3 27.6 17.8s28.2 4.2 34.2 6.8 16.8-4.2 12.1-14.9c-4.7-10.6 6.8-32.7 6.8-32.7l-29.7-6.4 0.4 8.5z"
        fill="#B75A32" p-id="11981"></path>
    <path
        d="M375.8 791.5l29.7 6.4s-11.5 22.1-6.8 32.7c4 9.1-3.4 15.4-9.3 15.4-1 0-1.9-0.2-2.8-0.5-5.9-2.5-14-1.3-34.2-6.8s-27.6-4-27.6-17.8c0-10.4 3.9-14.1 8.8-14.1 6.1 0 13.7 5.6 17.5 10.8 3.6 5 18.3 7.9 18.3 7.9 6.4 0 6.8-25.5 6.8-25.5l-0.4-8.5m0-10.2c-2.4 0-4.7 0.8-6.6 2.4-2.4 2.1-3.7 5.1-3.6 8.3l0.4 8.1c-0.1 4.7-0.6 9.8-1.3 13.5-2.5-0.8-4.7-1.7-5.6-2.4-2.6-3.6-6.3-7-10.3-9.6-3.6-2.3-9.1-5.1-15.2-5.1-6 0-11.1 2.6-14.5 7.4-3 4.2-4.5 9.7-4.5 16.9 0 5.5 0.8 13.5 8.2 18.9 4.5 3.3 9.8 4.5 17.1 6.3 2.9 0.7 6.1 1.5 9.8 2.5 12 3.3 19.9 4.3 25.7 5 3.3 0.4 5.8 0.7 7.1 1.3 2.1 0.9 4.4 1.4 6.8 1.4 6.8 0 13.6-3.8 17.4-9.6 3.8-5.9 4.3-13.2 1.3-20.1-0.4-0.8-0.7-4.7 1.9-12.8 2-6 4.6-11.1 4.6-11.1 1.5-2.8 1.5-6.2 0.2-9s-4-4.9-7.1-5.6l-29.7-6.4c-0.6-0.3-1.4-0.3-2.1-0.3z"
        fill="#992E2E" p-id="11982"></path>
    <path
        d="M574.3 176.5c121.6-28 188 59.9 227.4 180.2 17.7 54-55.6 171.7-55.6 171.7s-63.7 129.9-77.2 138.4c-13.6 8.5-68.8 45.8-68.8 45.8s-50.1 29.7-53.5 30.6-67.1-10.2-67.1-10.2L387 680.4s-136.7-253-137.5-255.5-17.4-87.9-17.4-87.9l15.6-59s41.7-144.7 229.7-83.6c36.4 11.7 71.6-12.1 96.9-17.9z"
        fill="#FFC84D" p-id="11983"></path>
    <path
        d="M617.9 171.2c94.4 0 149.4 80.3 183.9 185.4 17.7 54-55.6 171.7-55.6 171.7S682.5 658.2 669 666.7c-13.6 8.5-68.8 45.8-68.8 45.8s-50.1 29.7-53.5 30.6h-0.6c-7.4 0-66.4-10.2-66.4-10.2l-92.5-52.6s-136.7-253-137.5-255.5-17.4-87.9-17.4-87.9l15.6-59s28.4-98.7 144.2-98.7c24.4 0 52.8 4.4 85.6 15.1 7.1 2.3 14.1 3.2 21 3.2 28.7 0 55.4-16.4 75.8-21.1 15.2-3.5 29.7-5.2 43.4-5.2m0-10.2c-14.6 0-30 1.8-45.9 5.5-7.8 1.8-16.1 5-24.9 8.4-14.9 5.8-31.9 12.4-48.6 12.4-6.3 0-12.1-0.9-17.8-2.7-31.8-10.3-61.7-15.6-88.8-15.6-28 0-53.5 5.5-75.8 16.5-18 8.8-33.9 21-47.3 36.4-22.8 26-30.5 52.1-30.8 53.2v0.2l-15.6 59-0.6 2.3 0.4 2.3c16.7 86 17.5 88.4 17.7 89.1 0.5 1.4 0.8 2.4 69.8 130.3 33.9 62.8 68.1 126.2 68.4 126.8l1.4 2.6 2.5 1.4 92.5 52.6 1.5 0.9 1.8 0.3c14.1 2.4 60.5 10.4 68.2 10.4 1.2 0 2.1-0.1 3.1-0.4 1.7-0.4 4.8-1.2 56.2-31.7l0.3-0.2 0.3-0.2c0.6-0.4 55.2-37.3 68.4-45.6 3.3-2.1 7.9-6.1 21.2-28.7 7.1-12 15.9-28 26.2-47.6 16.4-31.1 31.4-61.7 33.4-65.8 2.5-4 19.5-32 34.8-66.4 22.4-50.4 29.7-88.5 21.5-113.4-19.5-59.5-42.9-103.9-71.6-135.8C706 180.1 665 161 617.9 161z"
        fill="#B25416" p-id="11984"></path>
    <path
        d="M259.8 259.1c0.2-2.3 2.1-4.1 4.4-4.3 7.3-0.5 22.7-0.8 30.3 4.6 0 0 22.1 9.8 8.1 52.8-1 3.1-1.8 6.2-2.4 9.4-5.9 30.9-28.3 180.5 77 213.1 0.1 0 0.2 0.1 0.3 0.1 4 1 95.5 24.9 131.2 98.6 4.5 9.4 8 19.3 12.2 29.8 1.7 4.2 3.1 7.6 4.4 10.2 1.8 3.5 6.9 3.4 8.6-0.2 0.9-2.1 2-4.2 3.7-9.5 16.1-51.9 34.9-75.6 71.4-110.8l0.3-0.3c2.7-2.2 41.2-33.8 60.7-67 8.3-14.2 11.1-31 7.8-47.2-8.2-40.5-22.5-152.6 73.1-140.6 2 0.3 3.7 1.8 4.1 3.8l22.7 111.9c0.1 0.6 0.1 1.3 0 1.9l-19.5 93.9c-0.1 0.4-0.2 0.9-0.5 1.3l-33 61.5c-0.1 0.2-0.3 0.5-0.4 0.7-5.6 7.2-106.6 137.1-115.3 139-8.2 1.8-66.7 40.8-75.8 46.9-0.8 0.5-1.7 0.8-2.6 0.8h-67.8c-0.5 0-1.1-0.1-1.6-0.3l-66.7-23.4c-0.5-0.2-0.9-0.4-1.3-0.7L251.9 630.2c-0.4-0.3-0.8-0.7-1-1.1l-51.4-72.4c-0.7-0.9-1-2.1-0.8-3.3L209.8 450c0-0.3 0.1-0.5 0.2-0.8l47.5-166c0.1-0.3 0.1-0.6 0.2-0.9l2.1-23.2z"
        fill="#CA9F8E" p-id="11985"></path>
    <path
        d="M530.6 764.7h-67.8c-1.1 0-2.2-0.2-3.3-0.6l-66.7-23.4c-0.9-0.3-1.8-0.8-2.6-1.4l-141.4-105c-0.8-0.6-1.6-1.4-2.2-2.2l-51.4-72.4c-1.4-2-2-4.4-1.8-6.8l11.2-103.5c0.1-0.6 0.2-1.1 0.3-1.7l47.5-166 2.1-23.1c0.4-4.8 4.3-8.6 9.2-8.9 10.6-0.7 24.9-0.4 33.3 5.3 3.8 2 24.5 15.2 10.3 58.8-1 3.1-1.7 5.9-2.3 8.8-5.5 29.1-27.9 176 73.5 207.3 4 1 97.9 25.6 134.6 101.4 3.3 6.8 5.9 13.7 8.8 21 1.2 3 2.3 6.1 3.6 9.2 1.5 3.8 2.8 6.8 3.9 9.1 0.1-0.1 0.1-0.3 0.2-0.4 0.8-1.7 1.7-3.7 3-7.9 16.2-52.3 35.6-77.1 72.7-113l0.6-0.6c1.6-1.3 40.4-33 59.5-65.6 7.7-13.1 10.3-28.6 7.2-43.6-3.1-15.3-6.6-38.5-5.9-62.2 0.9-29.5 8.1-51.8 21.5-66.2 14.5-15.6 35.7-21.7 63.2-18.2 4.2 0.5 7.6 3.7 8.4 7.8l22.7 111.9c0.3 1.3 0.3 2.6 0 4L763 510.5c-0.2 0.9-0.5 1.8-1 2.7l-33 61.5c-0.3 0.5-0.6 1-0.9 1.4-2.9 3.8-29.6 38.1-56.5 71.6-54.5 67.7-58.6 68.6-61.7 69.3-4.8 1.2-35.3 20.2-74.1 46.2-1.4 0.9-3.3 1.5-5.2 1.5z m-67.7-10.2h67.6c24.9-16.7 67.3-44.6 76.9-47.5 8.3-5.4 62.9-72.9 112.9-137.3l32.9-61.5 19.4-93.8L750 302.9c-23.9-3-42.2 2.1-54.2 15.1-27.6 29.7-18.3 93.4-13.1 119.5 3.5 17.5 0.5 35.5-8.4 50.8-19.7 33.6-57.6 64.9-61.9 68.3-36.5 35.3-54.3 58.2-70 108.7-1.5 4.8-2.6 7.2-3.5 9.1-0.2 0.3-0.3 0.6-0.4 1-1.6 3.5-4.9 5.7-8.7 5.8s-7.3-2-9-5.4c-1.4-2.7-2.8-6.2-4.6-10.6-1.3-3.2-2.5-6.3-3.6-9.3-2.7-7.1-5.3-13.8-8.4-20.2-34.6-71.5-124.1-94.9-127.9-95.9-0.2 0-0.4-0.1-0.5-0.1-25.4-7.8-45.6-22.9-60-44.7-11.8-17.8-19.7-40.2-23.7-66.5-6.8-45.6 0-90.5 3.2-107.6 0.6-3.3 1.5-6.6 2.6-10 12.2-37.6-5.1-46.5-5.3-46.6l-0.5-0.2-0.4-0.3c-4.4-3.1-14.4-4.5-26.8-3.7l-2.1 22.9-0.3 1.8-47.5 166-11.2 103.3 51.3 72.3 141.3 105 66.5 23.1zM608 706.9z"
        fill="#992E2E" p-id="11986"></path>
    <path
        d="M840.3 433c-6.8-40.9-28-103.5-74.6-127.3-33.6-17.1-80.9 27.7-66.2 102.9 7.6 39 13.6 84.1-64.3 153.6-39.4 35.2-89.8 128.9-91.4 144.5-0.7 7.3 7.8 28.9 30.2 70-30.2-4.5-61.2-60.1-64.3-69-45.1-130.2-121-137.5-132.4-139.8-69.9-14.3-98.8-77.5-105.9-124.1-9.7-63.6 2.8-114.2 2.8-114.2 25.2-92.4-17.1-78-52.6-45-22.4 20.8-53.9 88.4-57.4 96.1-0.2 0.5-0.4 0.9-0.6 1.4C25.9 759 462.7 811.1 483.2 813.3c0.5 0.1 1 0.1 1.6 0.2 9.6 1.9 44.7 2.1 49.2 2.1-0.1 0 367.9-14 306.3-382.6z"
        fill="#B75932" p-id="11987"></path>
    <path
        d="M265.7 259.4c15.4 0 22.6 18.1 8.4 70.2 0 0-12.5 50.6-2.8 114.2 7.1 46.6 36 109.8 105.9 124.1 11.4 2.3 87.3 9.6 132.4 139.8 3.1 8.9 34.1 64.6 64.3 69-22.4-41.1-30.9-62.8-30.2-70 1.5-15.6 52-109.4 91.4-144.5 77.9-69.6 71.9-114.6 64.3-153.6-12.6-64.5 20.3-106.6 51.1-106.6 5.2 0 10.3 1.2 15.1 3.6 46.7 23.8 67.8 86.4 74.6 127.3 61.6 368.6-306.4 382.6-306.4 382.6h-2.4c-9.2 0-38.2-0.4-46.8-2.1-0.5-0.1-1-0.2-1.6-0.2C462.5 811 25.7 758.9 163.4 382c0.2-0.5 0.4-1 0.6-1.4 3.5-7.7 35-75.3 57.4-96.1 15.7-14.2 32.4-25.1 44.3-25.1m0-10.2c-17.4 0-37.4 15.2-51.1 28-23.3 21.7-53.8 86.5-59.7 99.3-0.3 0.7-0.6 1.5-0.9 2.2-39.6 108.4-36.2 201.2 10 275.5 20.4 32.8 49.2 61.9 85.6 86.7 29.2 19.8 63.4 37 101.7 50.9 66.5 24.2 124.4 31 130.8 31.7 0.2 0 0.4 0.1 0.7 0.1 11.3 2.2 48.4 2.3 48.8 2.3H534.4c1.7-0.1 42.4-1.8 94.9-17.5 30.9-9.2 59.4-21.4 84.9-36.3 32-18.6 59.2-41.5 80.7-67.9 55.7-68.4 74.4-160.2 55.6-272.8-2.5-14.9-8.8-44.2-23.3-73-14.8-29.3-33.9-50.1-56.7-61.7-6.2-3.1-12.8-4.7-19.7-4.7-15.4 0-30.9 8.2-42.6 22.4-19.2 23.3-25.9 58.4-18.5 96.3 3.9 20 6.6 38.4 0.1 60.6-7.7 26.3-27.8 53.6-61.2 83.5-24.2 21.6-49.1 60.6-61.8 82-11.6 19.5-31.6 56-32.9 69.1-0.5 5.3 0.9 14.8 13.2 40.7-2.3-2.7-4.7-5.6-7.1-8.7-11.3-14.7-19.3-30-20.4-33.3-18.8-54.4-45.2-94.7-78.5-119.9-27.1-20.5-50.8-24.7-59.7-26.2-0.7-0.1-1.4-0.2-1.8-0.3-29-5.9-52.6-21.4-70.2-45.9-18.7-26-25.3-54.9-27.6-69.8-9.1-59.6 2-107.7 2.5-110.1 10.3-37.8 10.6-61.2 1-73.7-4.9-6.2-11.5-9.5-19.6-9.5z"
        fill="#992E00" p-id="11988"></path>
    <path
        d="M845.5 473.8c-43.8 317.7-333.3 291.3-333.3 291.3-170.2 0-308.4-93.4-357.7-151.7C223.3 782.5 468 811.7 483.2 813.3c0.5 0.1 1 0.1 1.6 0.2 9.6 1.9 44.7 2.1 49.2 2.1-0.1 0 340.3-12.9 311.5-341.8z"
        fill="#A84A29" p-id="11989"></path>
    <path
        d="M184.7 442.2h-0.7c-3.7-0.4-6.4-3.8-6-7.5 4.9-44.9 23.1-70.6 39.7-91.2 2.4-2.9 6.6-3.4 9.6-1 2.9 2.4 3.4 6.6 1 9.6-15.4 19.1-32.3 42.9-36.8 84.1-0.4 3.4-3.3 6-6.8 6z"
        fill="#FFFFFF" p-id="11990"></path>
    <path d="M175.459367 461.809743a8.4 8.4 0 1 0 15.072905-7.419403 8.4 8.4 0 1 0-15.072905 7.419403Z" fill="#FFFFFF"
        p-id="11991"></path>
    <path
        d="M610 324.1h-11.2c-6 0-11-4.9-11-11V282c0-6 4.9-11 11-11H610c6 0 11 4.9 11 11v31.1c-0.1 6-5 11-11 11zM414.2 324.1H403c-6 0-11-4.9-11-11V282c0-6 4.9-11 11-11h11.2c6 0 11 4.9 11 11v31.1c-0.1 6-5 11-11 11z"
        fill="#B25416" p-id="11992"></path>
    <path
        d="M486.8 423.2s54.8-2.9 60.7-49c2.3-18 13.5-41.8 36.2-29.5 26.6-5.5 27 14.9 23.6 29.7-3.4 14.9-16.6 43.9-61 48.8"
        fill="#FF7E7B" p-id="11993"></path>
    <path
        d="M546.3 428.3c-2.6 0-4.8-1.9-5.1-4.5-0.3-2.8 1.7-5.3 4.5-5.6 42.9-4.7 53.9-32.9 56.6-44.8 2.3-10.1 1.6-18-1.9-21.6-2.9-2.9-8.2-3.6-15.8-2-1.2 0.2-2.4 0.1-3.5-0.5-5.8-3.1-10.7-3.6-14.9-1.5-8.2 4.2-12.6 17.2-13.9 27.1-2.7 20.7-15 36.5-35.5 45.7-15.1 6.8-29.3 7.6-29.9 7.7-2.8 0.1-5.2-2-5.4-4.8-0.1-2.8 2-5.2 4.8-5.4 0.1 0 13.2-0.8 26.6-6.9 17.3-7.8 27.1-20.5 29.3-37.6 1.7-12.9 7.6-28.9 19.3-34.9 4.8-2.4 12.5-4.2 22.7 0.7 10.3-1.8 18.2-0.1 23.3 5.2 7.8 7.9 6.7 21.2 4.5 31-1.5 6.5-5.6 19.2-16.4 30.5-11.9 12.5-28.4 19.9-49 22.2h-0.3z"
        fill="#B25416" p-id="11994"></path>
    <path
        d="M515.4 430c-3.2 0-6.4-0.1-9.7-0.2-27-1-64.9-7.3-92.8-32.2-16.9-15.2-22-30-22.3-30.7-0.9-2.7 0.6-5.6 3.2-6.4 2.7-0.9 5.5 0.5 6.4 3.2 0.1 0.2 4.7 13.4 19.9 26.8 20.2 17.8 49.9 27.9 85.8 29.2 64.4 2.3 110.7-19.4 117.9-55.3 0.6-2.8 3.2-4.5 6-4 2.8 0.6 4.5 3.2 4 6-4 19.9-17.8 36.4-40 47.7-20.4 10.4-47.4 15.9-78.4 15.9z"
        fill="#B25416" p-id="11995"></path>
    <path d="M572.8 365.3s-3.4 41.8-34.6 53.1c0 0 23.8-1.7 32.9-7 0 0 27.3-32.5 1.7-46.1z" fill="#F46262" p-id="11996">
    </path>
    <path d="M547.5 374.2c2.2-17.3 10.3-45.8 33.3-31.5 1.9 1.2 4.3 1.7 6.5 1.4 23-3 23.3 16.2 20 30.3" fill="#FF7E7B"
        p-id="11997"></path>
    <path
        d="M814.9 395.1s39 9.7 47.5-3.3c8.5-12.9 30.6-57.1-23.8-90.2 0 0-31.7-0.8-36.2-22.1 0 0-7.9-37.3 27.7-41.6 0 0 31.4-0.8 31.4 32.3 0 0 56 40.3 43.3 104.2 0 0-0.3 58.8-50.6 63.9 0 0-32.5 0.9-38.5 11.9"
        fill="#B75D32" p-id="11998"></path>
    <path
        d="M815.7 455.3c-0.8 0-1.6-0.2-2.4-0.6-2.5-1.3-3.4-4.4-2.1-6.9 6.9-12.8 36.3-14.4 42.6-14.6 18.8-2 32.2-12.3 39.8-30.7 5.9-14.2 6-28 6-28.1 0-0.3 0-0.7 0.1-1 12-60-40.7-98.7-41.3-99.1-1.3-1-2.1-2.5-2.1-4.1 0-8.6-2.4-15.3-7.1-19.9-7-6.8-17.4-7.2-18.9-7.2-8.5 1.1-14.8 4.3-18.7 9.8-7.5 10.4-4.4 25.6-4.4 25.7 3.6 17 31.1 18 31.4 18 0.9 0 1.8 0.3 2.5 0.7 20.3 12.3 32.5 27.5 36.5 45.1 5.3 23.7-6 44.4-11.1 52.2-10 15.2-45.9 7.2-53 5.4-2.7-0.7-4.4-3.4-3.7-6.2 0.7-2.7 3.4-4.4 6.2-3.7 14.3 3.5 37.6 5.6 42.1-1.1 4.4-6.7 14.2-24.5 9.7-44.4-3.3-14.5-13.6-27.3-30.8-38-6.8-0.5-34.9-3.7-39.6-26-0.2-0.8-4-19.6 6-33.7 5.7-7.9 14.4-12.6 26.1-14h0.5c0.6 0 15.7-0.3 26.5 10.1 6.2 6.1 9.6 14.4 10.1 24.7 4.5 3.6 15.5 13.1 25.6 27.8 16.9 24.7 23.1 52.1 17.8 79.5-0.1 2.9-0.7 16.8-6.8 31.4-9.1 21.9-25.8 34.7-48.4 37h-0.4c-11.9 0.3-31.1 3.5-34.1 9.2-1 1.8-2.7 2.7-4.6 2.7z"
        fill="#992E2E" p-id="11999"></path>
    <path
        d="M151.1 478.2s-31.9 3.3-60.7 25c-24.2 18.3-44.1 78.9-1.3 113.3 40.6 32.6 122.2 18.7 122.2 18.7s42.4-7.6 35.7-39.9c-6.8-32.3-32.2-32.9-43.2-26.1 0 0 24.7-27.4 19.1-47.7-4-14.4-42.1-22.7-31.5 9.3 4.6 14-3.6 36.5-16.9 44.1 0 0-18.3 11.9-18.7 22.1 0 0-49.6 14.1-54.8-18.7-3-18.7 14.4-61.5 54.8-40.8"
        fill="#B75D32" p-id="12000"></path>
    <path
        d="M171.4 643.4c-27.3 0-62.3-4.3-85.4-22.8-22.8-18.3-27.3-41.7-27-58.1 0.4-24.9 12-50.9 28.4-63.2 29.5-22.3 61.9-25.9 63.2-26 2.8-0.3 5.3 1.7 5.6 4.5s-1.7 5.3-4.5 5.6c-0.5 0.1-31.1 3.6-58.2 24-11.8 8.9-24 30.8-24.4 55.3-0.2 14.2 3.6 34.3 23.2 50 19.8 15.9 50.7 19.9 73.1 20.4 24.7 0.6 44.9-2.8 45.1-2.8 0.1 0 20.2-3.8 28.6-16.3 3.4-5.1 4.4-10.8 2.9-17.5-2.5-12.1-8.2-20.3-16.2-23.7-7.2-3.1-15.1-1.7-19.3 0.9-2.2 1.3-5 0.9-6.6-1.1-1.6-1.9-1.6-4.8 0.1-6.7 6.4-7.1 22-28.5 18-43-0.9-3.4-6-7.1-11.7-8.5-4.5-1.1-8.3-0.5-10.1 1.4-2.1 2.2-2 7.1 0.1 13.5 5.5 16.5-4 41.3-19 50.1-6.5 4.3-16.1 12.9-16.3 18-0.1 2.2-1.6 4.1-3.7 4.7-1.2 0.4-30.8 8.5-48.6-2.8-7-4.5-11.2-11.2-12.6-20-2.2-13.7 4.5-35 19.1-45.6 8.3-6 22.6-11 43-0.5 2.5 1.3 3.5 4.4 2.2 6.9s-4.4 3.5-6.9 2.2c-12.7-6.5-23.6-6.6-32.4-0.3-12 8.7-16.5 26.7-15.1 35.8 0.9 5.9 3.6 10.1 8 13 11.1 7.1 30.1 3.9 37.4 2.3 1.4-4.5 4.9-9.4 10.5-14.4 4.9-4.5 9.7-7.6 9.9-7.7 0.1-0.1 0.2-0.1 0.2-0.1 10.9-6.3 18.5-26.2 14.6-38.1-4.3-12.9-1.2-20 2.1-23.6 4.4-4.8 11.7-6.4 20-4.4 7.9 1.9 16.9 7.5 19.1 15.7 3.8 13.9-4.1 29.9-11.2 40.5 4.1 0 8.6 0.7 13.1 2.6 7.8 3.4 18.1 11.5 22.2 31 2 9.5 0.5 18-4.5 25.4-10.8 16-34.3 20.4-35.3 20.6-1.4-0.1-18.5 2.8-40.7 2.8z"
        fill="#992E2E" p-id="12001"></path>
    <path
        d="M379.3 829.8s-4.2-3.4-13.2-5.1l1-8.1c0.1-0.1 10.2 4.9 12.2 13.2zM676 832s15.2-6.2 24.4-6.9l-6.3-8.9c0.1 0-14.1 5-18.1 15.8z"
        fill="#992E2E" p-id="12002"></path>
</svg>