<svg t="1702609812539" class="icon" viewBox="0 0 1025 1024" version="1.1" xmlns="http://www.w3.org/2000/svg" p-id="7686" width="200" height="200"><path d="M1023.322 194.076L960.125 569.08l35.563 292.504c3.694 30.333-17.893 57.912-48.211 61.606L124 1023.433c-30.319 3.694-57.884-17.907-61.579-48.24L0.637 467.153c-3.695-30.333 17.892-57.912 48.21-61.606l37.432-4.553 59.738-354.429c5.106-30.235 33.778-50.632 64.07-45.54l767.64 129.066c30.276 5.092 50.701 33.75 45.595 63.986zM131.432 982.57l799.979-96.201c14.737-1.771 25.226-15 23.427-29.558l-14.031-113.954L87.635 846.723l13.88 112.696c1.798 14.557 15.18 24.922 29.917 23.15zM64.913 442.368c-14.737 1.771-25.212 15-23.427 29.558l42.773 347.33L937.43 715.401l-42.62-346.084c-1.785-14.557-15.18-24.922-29.917-23.15l-799.98 96.2zM959.986 165.68L215.967 42.22c-14.682-2.436-28.575 7.32-31.052 21.78l-56.68 331.887 744.088-90.583c30.32-3.694 57.898 17.906 61.579 48.239l8.87 72.925 39.313-230.178c2.463-14.475-7.43-28.174-22.099-30.61z" p-id="7687" fill="#13227a"></path></svg>