<svg t="1702612943992" class="icon" viewBox="0 0 1092 1024" version="1.1" xmlns="http://www.w3.org/2000/svg" p-id="10020" width="200" height="200"><path d="M750.722486 0a68.261507 68.261507 0 0 1 68.261508 68.261507v272.968634A68.261507 68.261507 0 0 1 750.722486 409.491648H597.095399v71.666843H750.722486a187.912629 187.912629 0 0 1 179.631472 133.040285h93.337163a68.261507 68.261507 0 0 1 68.261507 68.261507v272.968634a68.261507 68.261507 0 0 1-68.261507 68.261507H750.722486a68.261507 68.261507 0 0 1-68.261507-68.261507V682.460283A68.261507 68.261507 0 0 1 750.722486 614.198776h65.475324a85.133399 85.133399 0 0 0-56.729802-30.18366L750.722486 583.550752H341.230838a85.133399 85.133399 0 0 0-65.475323 30.9576h65.475323a68.261507 68.261507 0 0 1 68.261507 68.261507v272.968634a68.261507 68.261507 0 0 1-68.261507 68.261507H68.262204A68.261507 68.261507 0 0 1 0.000697 955.428917V682.460283a68.261507 68.261507 0 0 1 68.261507-68.261507h93.337163a187.835235 187.835235 0 0 1 168.177159-132.730709h164.926612v-71.976419H341.230838a68.261507 68.261507 0 0 1-68.261507-68.261507V68.261507A68.261507 68.261507 0 0 1 341.230838 0z" fill="#1296db" p-id="10021"></path></svg>