<svg t="1702608507329" class="icon" viewBox="0 0 1365 1024" version="1.1" xmlns="http://www.w3.org/2000/svg" p-id="2731" width="200" height="200"><path d="M376.149333 495.069867a182.272 182.272 0 0 0-35.771733-3.208534c-41.233067 0-70.656 11.639467-100.0448 35.362134v-241.664a13.653333 13.653333 0 0 1 13.585067-13.6192h108.680533a13.653333 13.653333 0 0 1 13.585067 13.585066v209.544534z m0 152.439466v153.7024c0 7.509333-6.0416 13.585067-13.550933 13.585067H253.917867a13.585067 13.585067 0 0 1-13.585067-13.585067V703.829333c20.821333-11.229867 39.936-26.624 59.426133-46.08l12.014934-12.117333c15.633067-15.633067 19.5584-17.8176 28.603733-17.8176 9.5232 0 16.861867 3.413333 35.805867 19.6608z m268.014934-235.3152c-8.738133 15.018667-17.271467 30.173867-25.6 45.397334-48.3328 86.766933-75.776 123.0848-85.947734 124.8256-6.826667 1.6384-13.994667 1.160533-20.5824-1.365334V421.546667a13.653333 13.653333 0 0 1 13.585067-13.585067h108.680533c3.754667 0 7.304533 1.536 9.864534 4.266667z m3.754666 251.153067v137.864533c0 7.509333-6.144 13.585067-13.6192 13.585067H525.653333a13.585067 13.585067 0 0 1-13.585066-13.585067v-81.5104c13.380267 0.546133 27.716267-0.546133 43.485866-3.2768 37.410133-6.382933 64.512-21.4016 92.3648-53.009066v-0.068267z m203.776-396.834133a131.515733 131.515733 0 0 0-58.914133-0.750934c-30.173867 6.2464-53.8624 19.456-76.970667 43.178667V13.585067A13.653333 13.653333 0 0 1 729.429333 0h108.680534a13.653333 13.653333 0 0 1 13.585066 13.585067v252.928z m0 156.9792v377.719466c0 7.509333-6.109867 13.585067-13.6192 13.585067H729.429333a13.585067 13.585067 0 0 1-13.585066-13.585067v-239.5136c11.502933-19.933867 22.766933-40.004267 33.826133-60.177066 38.741333-68.983467 57.821867-96.529067 67.515733-100.1472 8.362667-3.072 23.4496 11.229867 34.5088 22.1184z m271.701334 3.584c-53.1456-1.092267-90.692267-19.899733-135.850667-61.371734v-148.138666a13.653333 13.653333 0 0 1 13.550933-13.6192h108.680534a13.653333 13.653333 0 0 1 13.585066 13.6192v209.5104z m0 135.9872v238.148266c0 7.509333-6.109867 13.585067-13.6192 13.585067H1001.130667a13.585067 13.585067 0 0 1-13.585067-13.585067V531.456c40.482133 20.241067 84.241067 30.993067 135.850667 31.675733v-0.068266z m-971.776 320.750933h1058.133333a13.653333 13.653333 0 0 1 13.6192 13.585067v74.786133c0 7.509333-6.075733 13.585067-13.585067 13.585067H151.620267a13.585067 13.585067 0 0 1-13.585067-13.585067v-74.752a13.653333 13.653333 0 0 1 13.585067-13.653333z m700.654933-504.797867c-16.0768-12.219733-27.170133-15.837867-38.843733-13.448533-21.1968 4.437333-48.776533 39.8336-93.3888 119.296l-12.526934 22.459733c-68.608 123.221333-100.795733 165.888-157.696 175.650134-57.070933 9.728-89.326933-6.178133-140.9024-51.985067-32.768-29.115733-46.523733-37.137067-68.539733-37.137067-19.899733 0-31.232 6.382933-52.565333 27.7504l-12.014934 12.0832c-40.891733 40.789333-77.380267 59.733333-138.717866 59.733334v-67.925334c40.891733 0 61.5424-10.717867 90.760533-39.936l11.946667-12.049066c32.8704-32.904533 58.88-47.650133 100.590933-47.650134 43.8272 0 69.2224 14.7456 112.708267 53.4528 38.434133 34.133333 54.272 41.949867 85.333333 36.625067 25.7024-4.437333 54.715733-42.8032 109.806933-141.7216l12.629334-22.664533c56.388267-100.420267 88.917333-142.165333 138.786133-152.576 33.621333-6.894933 63.3856 2.798933 93.730133 25.941333 10.478933 7.953067 20.650667 17.066667 34.5088 30.446933-7.4752-7.202133 25.6 25.088 33.826134 32.768 53.521067 49.7664 99.84 73.045333 166.638933 73.045334h95.778133v67.925333h-95.778133c-86.562133 0-147.968-30.754133-212.8896-91.204267a3022.916267 3022.916267 0 0 1-35.054933-33.860266 328.840533 328.840533 0 0 0-28.125867-25.019734z" fill="#5CDCD3" p-id="2732"></path></svg>