<?xml version="1.0" standalone="no"?><!DOCTYPE svg PUBLIC "-//W3C//DTD SVG 1.1//EN" "http://www.w3.org/Graphics/SVG/1.1/DTD/svg11.dtd"><svg t="1713183315431" class="icon" viewBox="0 0 1024 1024" version="1.1" xmlns="http://www.w3.org/2000/svg" p-id="2548" xmlns:xlink="http://www.w3.org/1999/xlink" width="200" height="200"><path d="M840.886857 73.142857c13.641143 0 23.844571 6.656 30.683429 16.676572l112.457143 213.321142c2.779429 5.412571 3.291429 19.821714 3.364571 26.697143l0.036571 89.965715c0 83.309714-71.570286 153.307429-156.781714 153.307428h-44.288c-51.126857 0-92.013714-16.676571-119.296-43.337143-27.245714 29.988571-74.971429 46.665143-132.900571 46.665143h-44.288c-57.965714 0-105.691429-16.676571-132.937143-46.665143-27.282286 29.988571-68.169143 46.665143-119.296 46.665143h-44.251429C108.105143 576.438857 36.571429 506.441143 36.571429 423.131429V338.468571c0.036571-5.046857 0.365714-18.468571 3.401142-25.344l88.612572-216.649142C132.022857 83.126857 145.627429 73.142857 159.268571 73.142857h681.618286z m-19.456 66.669714H183.990857L104.704 333.787429l-0.109714 1.792-0.073143 2.889142v84.662858c0 46.445714 41.106286 86.674286 88.868571 86.674285h44.288c32 0 54.564571-8.923429 68.608-24.393143l50.688-55.771428 50.688 55.771428c12.836571 14.153143 42.057143 24.356571 82.249143 24.356572h44.288c40.192 0 69.376-10.24 82.212572-24.356572l47.798857-52.589714 50.834285 49.737143c15.177143 14.811429 39.387429 23.881143 71.314286 23.881143h44.324572c47.762286 0 88.868571-40.228571 88.868571-86.674286V329.508571l-0.219429-4.059428-97.865142-185.636572z m68.169143 470.089143c8.996571 0 17.664 3.510857 24.027429 9.728 6.363429 6.253714 9.947429 14.738286 9.947428 23.588572v207.652571c0 26.514286-10.752 51.931429-29.842286 70.692572-19.126857 18.761143-45.019429 29.293714-72.045714 29.293714H203.337143a102.875429 102.875429 0 0 1-72.045714-29.257143 99.072 99.072 0 0 1-29.842286-70.729143v-207.652571c0-8.850286 3.584-17.334857 9.947428-23.588572a34.304 34.304 0 0 1 48.018286 0c6.4 6.253714 9.947429 14.738286 9.947429 23.588572v207.652571c0 8.850286 3.584 17.298286 9.947428 23.552 6.363429 6.253714 14.994286 9.764571 24.027429 9.764572h618.349714a34.304 34.304 0 0 0 24.027429-9.764572 33.024 33.024 0 0 0 9.910857-23.552v-207.652571c0-8.850286 3.584-17.334857 9.984-23.588572a34.267429 34.267429 0 0 1 23.990857-9.764571z" p-id="2549" fill="#1296db"></path><path d="M910.518857 288v64H83.529143v-64h826.989714z" p-id="2550" fill="#1296db"></path></svg>