<?xml version="1.0" standalone="no"?><!DOCTYPE svg PUBLIC "-//W3C//DTD SVG 1.1//EN" "http://www.w3.org/Graphics/SVG/1.1/DTD/svg11.dtd"><svg t="1710408390712" class="icon" viewBox="0 0 1049 1024" version="1.1" xmlns="http://www.w3.org/2000/svg" p-id="4251" xmlns:xlink="http://www.w3.org/1999/xlink" width="204.8828125" height="200"><path d="M993.8944 634.9568l-82.1248 20.1728a24.8064 24.8064 0 0 0-18.176 17.1776 24.448 24.448 0 0 0 5.76 23.7824l9.7024 9.984-128.6144 137.1136-113.5872-106.752a30.2848 30.2848 0 0 0-41.472 0.4352 4417.408 4417.408 0 0 1-101.2736 96.0768c-11.9808 8.2176-16.128 24.192-9.6768 37.376 7.5264 14.7456 25.344 20.6592 39.9872 13.2352a702.0544 702.0544 0 0 0 91.648-84.5568l113.408 106.752a29.952 29.952 0 0 0 41.472-0.5888l149.0944-156.7232 7.0656 7.424a25.088 25.088 0 0 0 35.8656-0.128c2.816-2.8672 4.9408-6.4 6.1696-10.2912l23.808-80.2304a24.704 24.704 0 0 0-5.7344-24.0896 25.0368 25.0368 0 0 0-23.3216-6.1696z m-512.1536 128.8448a29.056 29.056 0 0 0 49.3568-20.8384V603.904h148.736a29.0304 29.0304 0 0 0 31.8208-26.0608 29.2608 29.2608 0 0 0-25.6768-32.3328 28.4672 28.4672 0 0 0-6.144 0h-148.736v-81.408h148.736a29.2608 29.2608 0 0 0 25.6768-32.3072 29.1328 29.1328 0 0 0-25.6768-26.0608h-117.6064l94.848-96.3072a29.8496 29.8496 0 0 0-2.048-41.728 28.7488 28.7488 0 0 0-39.0144 0l-110.1312 111.872-110.208-111.872a28.7744 28.7744 0 0 0-41.0624-2.0736 29.8496 29.8496 0 0 0 0 43.776l94.6176 96.3328h-125.824a29.2608 29.2608 0 0 0-25.6768 32.3328c1.4592 13.7216 12.1344 24.576 25.6768 26.0608h149.376v81.408h-149.376a29.2608 29.2608 0 0 0-25.6768 32.3072c1.4592 13.7216 12.1344 24.576 25.6768 26.0608h149.376v139.1104c0.1024 7.8336 3.328 15.3088 8.8832 20.736h0.0768zM25.6 512.4352C25.9072 780.6976 240 998.0672 504.1664 998.4v-0.4096a31.3344 31.3344 0 0 0 30.0544-32.512 31.3088 31.3088 0 0 0-29.0048-30.464v-0.4096c-229.632 0.5888-416.256-187.9552-416.8704-421.1712-0.5888-233.216 185.088-422.7328 414.7456-423.3216 229.632-0.6144 416.2816 187.9552 416.8704 421.1456v1.5872h0.8448a31.232 31.232 0 0 0 32.5888 29.8752 31.2832 31.2832 0 0 0 29.4144-29.8752h0.4096C983.7824 244.3008 769.8688 26.1888 505.4208 25.6 240.9728 25.0368 26.1632 242.2528 25.6 510.7712v1.664z" fill="#ffffff" p-id="4252"></path></svg>