<svg t="1714967479405" class="icon" viewBox="0 0 1024 1024" version="1.1" xmlns="http://www.w3.org/2000/svg" p-id="4480" width="200" height="200"><path d="M516.266667 938.666667c-189.269333 0-346.069333-96.853333-410.154667-260.693334a96.981333 96.981333 0 0 0-3.029333-6.570666 36.266667 36.266667 0 0 1 21.162666-50.474667l11.093334-3.626667a42.666667 42.666667 0 0 1 48.213333 15.914667c7.04 9.941333 11.093333 16.256 12.245333 19.029333 52.181333 124.757333 176.256 196.352 320.426667 196.352 149.632 0 274.816-102.314667 320.512-233.770666l-42.666667-12.672a12.8 12.8 0 0 1-4.437333-22.186667l121.685333-98.645333a12.8 12.8 0 0 1 20.138667 5.802666l48.810667 142.464a12.8 12.8 0 0 1-15.36 16.512l-44.245334-11.733333C863.232 808.533333 713.130667 938.666667 516.266667 938.666667z m-1.28-853.333334c190.08 0 344.789333 109.44 406.272 275.584a24.32 24.32 0 0 1-16.384 31.914667l-32.170667 8.832a24.405333 24.405333 0 0 1-29.013333-14.165333c-51.285333-123.648-186.282667-220.672-328.661334-220.672-148.693333 0-286.976 109.482667-332.373333 240.725333l51.84 18.474667a12.8 12.8 0 0 1 3.285333 22.4l-126.293333 92.458666a12.8 12.8 0 0 1-19.626667-6.186666L43.264 392.32a12.8 12.8 0 0 1 15.701333-16.384l49.28 14.464C165.376 216.448 319.317333 85.333333 514.986667 85.333333zM376.917333 290.773333a42.24 42.24 0 0 1 56.106667 11.306667l82.56 113.706667 80.341333-113.664a40.106667 40.106667 0 0 1 54.613334-10.496 36.096 36.096 0 0 1 9.216 51.925333l-70.357334 93.866667h53.888a37.290667 37.290667 0 1 1 0 74.581333h-88.874666l1.194666 59.605333h92.501334a34.218667 34.218667 0 0 1 0 68.394667h-92.501334l-0.597333 85.845333a42.666667 42.666667 0 0 1-42.666667 42.368H512a42.666667 42.666667 0 0 1-42.666667-42.666666V640H377.856a34.218667 34.218667 0 0 1 0-68.394667H469.333333V512H379.178667a37.290667 37.290667 0 1 1 0-74.624h58.154666l-70.528-95.146667a35.498667 35.498667 0 0 1 10.069334-51.456z" fill="#ffffff" p-id="4481"></path></svg>