<svg t="1715040073627" class="icon" viewBox="0 0 1109 1024" version="1.1" xmlns="http://www.w3.org/2000/svg" p-id="5362" width="200" height="200"><path d="M1103.717684 362.771993a42.664 42.664 0 0 1-58.364352 15.337708l-63.825344-37.22434v640.450639a42.664 42.664 0 0 1-42.685332 42.664H170.826657a42.664 42.664 0 0 1-42.664-42.664V340.885361l-63.846677 37.22434A42.706664 42.706664 0 0 1 21.310668 304.407641L533.342666 5.695644c0.42664-0.255984 0.895944-0.383976 1.343916-0.618628 1.429244-0.767952 2.87982-1.38658 4.37306-1.983876 1.17326-0.469304 2.325188-0.938608 3.51978-1.301252 1.38658-0.405308 2.77316-0.703956 4.202404-0.981272 1.322584-0.255984 2.623836-0.511968 3.94642-0.63996 1.365248-0.127992 2.730496-0.127992 4.117076-0.127992 1.365248 0 2.730496 0 4.095744 0.127992 1.322584 0.127992 2.645168 0.383976 3.967752 0.661292 1.407912 0.255984 2.815824 0.554632 4.181072 0.95994 1.194592 0.362644 2.34652 0.831948 3.51978 1.301252 1.49324 0.597296 2.943816 1.215924 4.37306 1.983876 0.447972 0.234652 0.917276 0.362644 1.343916 0.618628L1088.358644 304.407641a42.685332 42.685332 0 0 1 15.35904 58.364352zM554.845322 91.962252L212.786701 291.501781c0.383976 2.325188 0.703956 4.650376 0.703956 7.082224v640.087995h682.687999V298.584005c0-2.431848 0.31998-4.757036 0.725288-7.082224L554.845322 91.962252z m170.656001 547.99775a42.664 42.664 0 1 1 0 85.349333h-127.992001v85.349332a42.664 42.664 0 0 1-85.349332 0v-85.349332h-127.992a42.664 42.664 0 0 1 0-85.349333h127.992v-85.349332h-127.992a42.664 42.664 0 1 1 0-85.328h110.329104l-97.828552-97.849885a42.642668 42.642668 0 1 1 60.326896-60.348228l97.849884 97.849885 97.828553-97.849885a42.664 42.664 0 1 1 60.326896 60.348228l-97.828553 97.849885h110.329105a42.664 42.664 0 1 1 0 85.328h-127.992001V639.960002h127.992001z" fill="#ffffff" p-id="5363"></path></svg>