<svg t="1715039993168" class="icon" viewBox="0 0 1024 1024" version="1.1" xmlns="http://www.w3.org/2000/svg" p-id="4278" width="200" height="200"><path d="M981.353387 283.946667c-5.930667 0-11.904-1.152-17.621334-3.584L512.020053 87.893333 60.35072 280.362667C38.932053 289.450667 13.588053 280.618667 3.860053 260.522667c-9.770667-20.096-0.256-43.818667 21.205334-52.949334L512.020053 0l486.997334 207.530667c21.461333 9.130667 30.933333 32.853333 21.205333 52.949333-7.168 14.762667-22.698667 23.466667-38.869333 23.466667z" fill="#ffffff" p-id="4279"></path><path d="M512.020053 203.946667S42.68672 372.394667 42.68672 376.362667V928.853333C42.68672 981.205333 102.804053 1024 176.31872 1024h671.402667C921.236053 1024 981.353387 981.205333 981.353387 928.896V376.405333c0-4.010667-469.333333-172.458667-469.333334-172.458666zM277.353387 813.781333a30.293333 30.293333 0 0 1-30.208 30.208H158.228053A30.293333 30.293333 0 0 1 128.020053 813.781333v-79.573333a30.293333 30.293333 0 0 1 30.208-30.208h88.874667a30.293333 30.293333 0 0 1 30.208 30.208v79.573333z m0-200.021333a30.293333 30.293333 0 0 1-30.208 30.208H158.228053A30.293333 30.293333 0 0 1 128.020053 613.76V534.186667a30.293333 30.293333 0 0 1 30.208-30.208h88.874667a30.293333 30.293333 0 0 1 30.208 30.208v79.573333z m199.125333 200.021333a30.293333 30.293333 0 0 1-30.208 30.208H357.353387a30.293333 30.293333 0 0 1-30.208-30.208v-79.573333a30.293333 30.293333 0 0 1 30.208-30.208h88.874666a30.293333 30.293333 0 0 1 30.208 30.208v79.573333z m0-200.021333a30.293333 30.293333 0 0 1-30.208 30.208H357.353387a30.293333 30.293333 0 0 1-30.208-30.208V534.186667a30.293333 30.293333 0 0 1 30.208-30.208h88.874666a30.293333 30.293333 0 0 1 30.208 30.208v79.573333z m199.082667 200.021333a30.293333 30.293333 0 0 1-30.208 30.208h-88.874667a30.293333 30.293333 0 0 1-30.208-30.208v-79.573333a30.293333 30.293333 0 0 1 30.208-30.208h88.874667a30.293333 30.293333 0 0 1 30.208 30.208v79.573333z m0-200.021333a30.293333 30.293333 0 0 1-30.208 30.208h-88.874667a30.293333 30.293333 0 0 1-30.208-30.208V534.186667a30.293333 30.293333 0 0 1 30.208-30.208h88.874667a30.293333 30.293333 0 0 1 30.208 30.208v79.573333z m199.125333 200.021333a30.293333 30.293333 0 0 1-30.208 30.208h-88.874667a30.293333 30.293333 0 0 1-30.208-30.208v-79.573333a30.293333 30.293333 0 0 1 30.208-30.208h88.874667a30.293333 30.293333 0 0 1 30.208 30.208v79.573333z" fill="#ffffff" p-id="4280"></path></svg>